<svg xmlns="http://www.w3.org/2000/svg" width="210" height="52" viewBox="0 0 161 40" fill="white" class="navbar-brand-logo"><path d="M24.4656 8.12977L21.8702 6.83206L24.1221 2.0229L26.7176 3.32061L24.4656 8.12977ZM31.2214 14.542L35.3053 11.2214L33.5115 8.9313L29.4275 12.2519L31.2214 14.542ZM28.1679 10.916L31.4122 6.75572L29.1603 4.92366L25.9542 9.08397L28.1679 10.916ZM27.1374 27.2519V25.7634H24.5038V27.2519H27.1374ZM32.8244 25.3817L32.5954 23.2443L28.855 23.6641L29.084 25.8015L32.8244 25.3817ZM30.5725 17.1756L29.4656 15.3817L26.2595 17.4427L27.3664 19.2366L30.5725 17.1756ZM32.1756 21.1069L31.4886 19.084L27.9389 20.3435L28.626 22.3664L32.1756 21.1069ZM21.374 1.03053L18.5878 0.381679L17.4046 5.57252L20.1908 6.22137L21.374 1.03053ZM1.03053 25.7634V27.2519H3.66412V25.7634H1.03053ZM4.16031 14.8855L1.48855 12.1756L0 13.7023L2.67176 16.4122L4.16031 14.8855ZM15.5344 0H12.6718V5.34351H15.5344V0ZM1.18321 24.2748L3.74046 24.8855L4.0458 23.4351L1.48855 22.8244L1.18321 24.2748ZM13.4351 11.0305L13.0153 7.17557L10.9542 7.40458L11.374 11.2977L13.4351 11.0305ZM10.0382 11.6031L8.77863 7.9771L6.79389 8.70229L8.05344 12.3664L10.0382 11.6031ZM6.9084 12.9008L4.8855 9.61832L3.12977 10.7634L5.15267 14.0458L6.9084 12.9008ZM28.1298 13.626L26.6412 12.0992L23.9695 14.8473L25.458 16.374L28.1298 13.626ZM62.3282 23.6641C62.3282 21.2595 63.9313 19.1603 66.5649 19.1603C69.084 19.1603 70.6107 21.0305 70.6107 23.7405V24.3893H64.4275C64.4657 25.687 65.6107 26.4504 67.2137 26.4504C68.0534 26.4504 68.9695 26.3359 69.771 26.1069L70.1527 27.6718C69.1603 27.9771 68.2443 28.1679 67.1756 28.1679C64.084 28.1679 62.3282 26.3359 62.3282 23.6641ZM64.4657 22.8244H68.5496C68.4351 21.5649 67.7863 20.8015 66.5649 20.8015C65.4198 20.8397 64.6183 21.5267 64.4657 22.8244ZM1.98473 21.374L4.35115 22.5573L4.96183 21.2214L2.59542 20.0382L1.98473 21.374ZM129.275 16.2214H127.519V18.0153H129.275V16.2214ZM126.031 16.2214H124.275V18.0153H126.031V16.2214ZM84.8855 19.313H82.7099V28.0153H84.8855V19.313ZM58.4351 24.1603C58.4351 22.4427 59.4275 21.2214 61.3359 21.2214V19.1603C60.0382 19.1603 58.7405 20.0763 58.3588 20.916V19.313H56.2214V28.0153H58.397V24.1603H58.4351ZM74.7328 15.7634H72.5573V17.8626H74.7328V15.7634ZM84.8855 15.7634H82.7099V17.8626H84.8855V15.7634ZM18.1298 11.6031L20.1145 12.2901L21.374 8.62595L19.3893 7.93893L18.1298 11.6031ZM26.9847 24.2748L26.6794 22.8244L24.1221 23.4351L24.4275 24.8855L26.9847 24.2748ZM23.8168 22.5573L26.1832 21.374L25.5725 20.0382L23.2061 21.2214L23.8168 22.5573ZM25 10.7634L23.2443 9.61832L21.2214 12.9008L22.9771 14.0458L25 10.7634ZM34.542 23.2824L39.6183 22.0992L38.9695 19.2366L33.8931 20.4198L34.542 23.2824ZM47.9771 22.8626H53.9695V20.8779H47.9771V18.0534H54.5802V16.0687H45.687V27.9771H47.9771V22.8626ZM33.3588 18.7405L38.0534 16.4504L36.7939 13.8168L32.0992 16.1069L33.3588 18.7405ZM110.153 39.8855H115.305V38.7023H111.527V36.7557H115.076V35.5725H111.527V33.8931H115.305V32.7099H110.153V39.8855ZM73.5496 39.8855H78.7023V38.7023H74.9237V36.7557H78.4733V35.5725H74.9237V33.8931H78.7023V32.7099H73.5496V39.8855ZM99.0076 33.8168C99.5038 33.8168 100.038 33.8931 100.534 34.0076L100.802 32.8626C100.229 32.6718 99.6183 32.5573 98.8168 32.5573C96.4886 32.5573 94.8473 34.084 94.8473 36.2595C94.8473 38.3969 96.4886 39.9618 98.8168 39.9618C99.542 39.9618 100.191 39.8855 100.802 39.6565L100.534 38.5496C99.9237 38.7023 99.542 38.7405 99.0076 38.7405C97.2137 38.7405 96.2214 37.7099 96.2214 36.2595C96.2214 34.8473 97.2137 33.8168 99.0076 33.8168ZM91.6412 35.7634C90.0763 35.1527 89.6183 35 89.6183 34.4656C89.6183 33.9695 90.0382 33.7786 91.145 33.7786C91.8702 33.7786 92.8244 33.8931 93.5115 34.0458L93.7023 32.9389C92.9771 32.7481 91.9084 32.5954 91.1069 32.5954C89.1603 32.5954 88.2443 33.2061 88.2443 34.4656C88.2443 35.6489 88.9695 36.1069 90.687 36.7557C92.1374 37.2901 92.5191 37.4428 92.5191 37.9389C92.5191 38.5115 91.9084 38.8168 90.916 38.8168C90.0763 38.8168 89.1603 38.626 88.2824 38.3206L87.9771 39.3893C88.7786 39.771 90 40 90.9542 40C92.7099 40 93.8931 39.1985 93.8931 37.9389C93.9313 36.7176 93.2825 36.4122 91.6412 35.7634ZM110.191 26.4122C110 26.4504 109.695 26.4886 109.58 26.4886C109.008 26.4886 108.588 26.2977 108.588 25.3817V20.7634H110.153V19.313H108.588V16.8702H106.412V19.313H105.267V20.7634H106.412V25.4962C106.412 27.4046 107.557 28.1298 109.16 28.1298C109.58 28.1298 110.115 28.0534 110.42 27.9771L110.191 26.4122ZM107.023 35.6489H103.664V32.7099H102.29V39.8855H103.664V36.8702H107.023V39.8855H108.397V32.7099H107.023V35.6489V35.6489ZM81.0305 26.4122C80.8779 26.4122 80.4199 26.4122 80.229 26.4122C79.4275 26.4122 79.1985 26.0687 79.1985 25.0763V16.1069H77.0229V25.3435C77.0229 27.3282 78.2061 28.2061 79.8473 28.2061C80.0382 28.2061 80.8397 28.1679 81.0305 28.1298V26.4122V26.4122ZM91.5267 28.1679C92.2519 28.1679 93.2061 27.9771 93.8168 27.7481L93.4733 26.145C92.8244 26.3359 92.3282 26.4122 91.7176 26.4122C89.8092 26.4122 88.8931 25.2672 88.8931 23.626C88.8931 21.9847 89.8092 20.8779 91.7176 20.8779C92.2519 20.8779 92.8626 20.916 93.4733 21.0687L93.8168 19.5038C93.0916 19.2366 92.3664 19.1221 91.5267 19.1221C88.626 19.1221 86.7176 21.1069 86.7176 23.626C86.7176 26.2214 88.626 28.1679 91.5267 28.1679ZM85.1527 37.7099L81.5649 32.7099H80.229V39.8855H81.5649V34.8855L85.1527 39.8855H86.4886V32.7099H85.1145V37.7099H85.1527ZM103.664 28.0153V22.4809C103.664 20.458 102.786 19.1221 100.802 19.1221C99.5038 19.1221 98.3969 19.8473 97.8244 20.6489V16.0687H95.687V27.9771H97.8626V23.1298C97.8626 21.9084 98.9313 21.0687 99.9237 21.0687C101.031 21.0687 101.45 21.7176 101.45 22.7863V28.0153H103.664ZM148.015 19.1603C146.718 19.1603 145.611 19.8855 145.038 20.687V19.313H142.901V28.0153H145.076V23.1679C145.076 21.9466 146.145 21.1069 147.099 21.1069C148.206 21.1069 148.664 21.7557 148.664 22.8244V28.0534H150.84V22.5191C150.916 20.4962 150 19.1603 148.015 19.1603ZM138.053 19.1603C136.756 19.1603 135.649 19.8855 135.076 20.687V16.1069H132.939V28.0153H135.115V23.1679C135.115 21.9466 136.183 21.1069 137.176 21.1069C138.282 21.1069 138.702 21.7557 138.702 22.8244V28.0534H140.878V22.5191C140.916 20.4962 140 19.1603 138.053 19.1603ZM160.84 24.3893H154.657C154.695 25.687 155.84 26.4504 157.443 26.4504C158.282 26.4504 159.198 26.3359 160 26.1069L160.382 27.6718C159.389 27.9771 158.473 28.1679 157.405 28.1679C154.237 28.1679 152.481 26.3359 152.481 23.6641C152.481 21.2595 154.084 19.1603 156.718 19.1603C159.237 19.1603 160.763 21.0305 160.763 23.7405V24.3893H160.84ZM158.74 22.8244C158.626 21.5649 157.977 20.8015 156.756 20.8015C155.611 20.8015 154.809 21.4885 154.657 22.8244H158.74ZM126.298 36.2977C126.298 38.3969 124.466 39.8855 121.794 39.8855H120.191V32.7099H121.794C124.466 32.7099 126.298 34.1985 126.298 36.2977ZM124.847 36.2977C124.847 34.6565 123.511 33.9313 122.023 33.9313H121.527V38.6641H122.023C123.55 38.6641 124.847 37.9389 124.847 36.2977ZM120.992 23.6641C120.992 25.8397 119.695 28.1679 117.214 28.1679C116.145 28.1679 115.191 27.5954 114.58 26.7557V28.0153H112.366V16.1069H114.58V20.5344C115.267 19.5802 116.145 19.1221 117.214 19.1221C119.733 19.1603 120.992 21.374 120.992 23.6641ZM118.817 23.6641C118.817 22.1374 118.13 20.8779 116.718 20.8779C115.382 20.8779 114.58 22.0611 114.58 23.6641C114.58 25.3053 115.42 26.4504 116.718 26.4504C118.092 26.4504 118.817 25.1908 118.817 23.6641ZM128.473 24.1603C128.473 25.3817 127.405 26.2214 126.45 26.2214C125.344 26.2214 124.886 25.5725 124.886 24.5038V19.313H122.71V24.8473C122.71 26.8702 123.626 28.1679 125.611 28.1679C126.908 28.1679 128.015 27.4427 128.55 26.6412V28.0534H130.687V19.313H128.473V24.1603ZM117.023 39.8855H118.397V32.7099H117.023V39.8855ZM7.67176 14.771L8.81679 17.1756L10.1145 16.5267L8.96947 14.1221L7.67176 14.771ZM17.2901 7.44275L15.229 7.21374L14.8092 11.0687L16.8702 11.2977L17.2901 7.44275ZM15.7634 15.916L17.1756 16.2595L17.7481 13.626L16.3359 13.2824L15.7634 15.916ZM74.7328 19.313H72.5573V28.0153H74.7328V19.313ZM10.3817 13.626L10.9542 16.2595L12.3664 15.916L11.7939 13.2824L10.3817 13.626ZM5.30534 16.5267L6.94657 18.626L8.0916 17.7099L6.45038 15.6107L5.30534 16.5267ZM3.35878 18.7405L5.41985 20.4198L6.33588 19.2748L4.27481 17.5954L3.35878 18.7405ZM19.1603 14.1221L18.0153 16.5267L19.313 17.1756L20.458 14.771L19.1603 14.1221ZM13.3588 15.7634H14.8092V13.0534H13.3588V15.7634ZM58.5496 32.7099L61.3359 39.8855H59.9618L59.3511 38.2824H56.4886L55.8779 39.8855H54.5038L57.2901 32.7099H58.5496ZM59.0076 37.2519L57.9008 34.1221L56.7939 37.2519H59.0076ZM60.916 33.9313H63.3206V39.9237H64.6947V33.9313H68.7023V39.9237H70.0763V33.9313H72.4428V32.7481H60.916V33.9313ZM53.3206 32.7099L52.1756 37.3664L50.687 32.7099H49.6947L48.2061 37.3664L47.0611 32.7099H45.687L47.5191 39.8855H48.626L50.1908 34.9618L51.7557 39.8855H52.8626L54.6947 32.7099H53.3206ZM23.855 17.5954L21.7939 19.2748L22.7099 20.4198L24.771 18.7405L23.855 17.5954ZM21.6794 15.6107L20.0382 17.7099L21.1832 18.626L22.8244 16.5267L21.6794 15.6107ZM34.6947 28.0153H39.9237V25.0763H34.6947V28.0153ZM22.9008 33.8168H39.9237V32.7481H22.9008V33.8168Z"></path></svg>