<svg xmlns="http://www.w3.org/2000/svg" width="280" height="52" viewBox="0 0 214 40" fill="white" class="navbar-brand-logo"><path d="M105.708 36.7967C105.708 38.5216 104.394 40 102.341 40C100.287 40 98.9733 38.4805 98.9733 36.7967V32.1561H100.452V36.7967C100.452 37.9877 101.232 38.6858 102.341 38.6858C103.45 38.6858 104.23 37.9466 104.23 36.7967V32.1561H105.708V36.7967V36.7967ZM97.1253 39.8768H95.6468V36.6324H92.0329V39.8768H90.5544V32.1561H92.0329V35.3183H95.6468V32.1561H97.1253V39.8768ZM88.8706 39.6715C88.2136 39.9179 87.5154 40 86.7351 40C84.23 40 82.423 38.3162 82.423 36.0164C82.423 33.6756 84.1889 32.0329 86.7351 32.0329C87.5975 32.0329 88.2546 32.115 88.8706 32.3614L88.5832 33.5934C88.0082 33.4292 87.4743 33.3881 86.9405 33.3881C85.0103 33.3881 83.9425 34.4969 83.9425 36.0575C83.9425 37.6181 84.9692 38.7269 86.9405 38.7269C87.5565 38.7269 87.9261 38.6858 88.5832 38.5216L88.8706 39.6715ZM70.6776 34.3327C70.6776 33.6756 70.2259 33.306 69.4456 33.306H67.0226V35.3593H69.4456C70.2259 35.4004 70.6776 34.9897 70.6776 34.3327ZM70.924 37.6181C70.924 36.961 70.5544 36.5092 69.692 36.5092H66.9815V38.6858H69.692C70.5133 38.6858 70.924 38.2752 70.924 37.6181ZM72.4025 37.6591C72.4025 38.768 71.54 39.8768 70.1027 39.8768H65.5442V32.1561H69.7331C71.2526 32.1561 72.115 32.9363 72.115 34.1684C72.115 34.7844 71.8686 35.5236 70.9651 35.8522C72.0329 36.1396 72.4025 36.9199 72.4025 37.6591ZM81.2731 36.0164C81.2731 38.193 79.5483 40 77.3306 40C75.0719 40 73.3881 38.193 73.3881 36.0164C73.3881 33.8398 75.1129 32.0329 77.3306 32.0329C79.5893 32.0329 81.2731 33.7988 81.2731 36.0164ZM80 36.0164C80 34.538 78.8501 33.347 77.3717 33.347C75.8522 33.347 74.7433 34.538 74.7433 36.0164C74.7433 37.4949 75.8932 38.6858 77.3717 38.6858C78.8501 38.6858 80 37.4949 80 36.0164ZM115.441 39.8768H114.004V34.7844L111.91 38.5626H111.088L108.994 34.7844V39.9179H107.556V32.1971H108.994L111.499 36.6735L114.004 32.1971H115.441V39.8768ZM169.692 27.0637C169.363 27.1458 168.83 27.2279 168.337 27.2279C166.612 27.2279 165.38 26.4476 165.38 24.3943V19.4661H164.148V17.577H165.38V14.2916H167.721V17.577H169.405V19.4661H167.762V24.271C167.762 25.2567 168.214 25.462 168.83 25.462C168.994 25.462 169.281 25.4209 169.487 25.3799L169.692 27.0637ZM71.6222 23.1212C71.6222 25.5442 70.3491 27.1458 67.4743 27.1458H65.5442V25.2567H67.3922C68.6653 25.2567 69.117 24.3943 69.117 23.1212V16.3039H65.8316V14.2916H71.5811V23.1212H71.6222ZM81.9302 27.1047H79.6715V26.078C79.0554 26.8583 78.152 27.269 76.8789 27.269C74.9897 27.269 73.7166 26.1191 73.7166 24.4764C73.7166 22.7105 74.8255 21.7248 76.7556 21.7248H79.5483V20.9446C79.5483 19.9179 79.0144 19.4251 77.2895 19.4251C76.3039 19.4251 75.4415 19.5072 74.4148 19.6304L74.2094 17.9055C75.1951 17.7002 76.386 17.577 77.4949 17.577C80.2464 17.577 81.8891 18.6858 81.8891 21.0267V27.1047H81.9302ZM79.5893 23.614V23.2854H77.5359C76.5914 23.2854 76.0575 23.614 76.0575 24.4764C76.0575 25.2567 76.5503 25.6263 77.5359 25.6263C78.768 25.5852 79.5893 24.8049 79.5893 23.614ZM92.6489 27.1047H90.308V21.5195C90.308 20.3696 89.8152 19.6715 88.6653 19.6715C87.5975 19.6715 86.4476 20.575 86.4476 21.8891V27.1047H84.1068V14.2916H86.4066V19.2197C87.0226 18.3162 88.2136 17.577 89.6099 17.577C91.7454 17.577 92.6899 19.0144 92.6899 21.191V27.1047H92.6489ZM100.452 19.7947C98.3573 19.7947 97.3306 21.0678 97.3306 22.9569V27.1458H94.9897V17.7413H97.2895V19.4251C97.7002 18.5626 99.0965 17.577 100.493 17.577V19.7947H100.452ZM110.924 27.1047H108.583V21.5195C108.583 20.3696 108.09 19.6715 106.94 19.6715C105.873 19.6715 104.723 20.575 104.723 21.8891V27.1047H102.382V14.2916H104.682V19.2197C105.298 18.3162 106.489 17.577 107.885 17.577C110.021 17.577 110.965 19.0144 110.965 21.191V27.1047H110.924ZM121.684 27.1047H119.384V25.5852C118.768 26.4887 117.577 27.2279 116.222 27.2279C114.086 27.2279 113.142 25.7906 113.142 23.655V17.7413H115.483V23.3265C115.483 24.4764 115.975 25.1745 117.166 25.1745C118.234 25.1745 119.343 24.271 119.343 22.9569V17.7413H121.725V27.1047H121.684ZM132.649 27.1047H130.308V21.5195C130.308 20.3696 129.774 19.6715 128.624 19.6715C127.556 19.6715 126.448 20.575 126.448 21.8891V27.1047H124.107V17.7413H126.407V19.2197C127.023 18.3162 128.214 17.577 129.61 17.577C131.745 17.577 132.69 19.0144 132.69 21.191V27.1047H132.649ZM143.943 27.1047H141.561V25.7495C140.904 26.653 139.877 27.269 138.727 27.269C136.057 27.269 134.661 24.7639 134.661 22.423C134.661 20 136.057 17.577 138.727 17.577C139.877 17.577 140.821 18.0698 141.561 19.0965V14.2916H143.943V27.1047ZM141.561 22.423C141.561 20.6571 140.698 19.4251 139.261 19.4251C137.741 19.4251 137.002 20.7803 137.002 22.423C137.002 24.0657 137.741 25.4209 139.261 25.4209C140.698 25.4209 141.561 24.1478 141.561 22.423ZM154.949 23.2033H148.296C148.337 24.5996 149.569 25.4209 151.294 25.4209C152.197 25.4209 153.183 25.2977 154.045 25.0513L154.456 26.7351C153.388 27.0637 152.402 27.269 151.253 27.269C147.885 27.269 145.996 25.2977 145.996 22.423C145.996 19.8357 147.721 17.577 150.554 17.577C153.265 17.577 154.908 19.5893 154.908 22.4641V23.2033H154.949ZM152.731 21.5195C152.608 20.1643 151.91 19.384 150.595 19.384C149.405 19.384 148.501 20.1232 148.337 21.5195H152.731ZM162.546 19.7947C160.452 19.7947 159.425 21.0678 159.425 22.9569V27.1458H157.084V17.7413H159.384V19.4251C159.795 18.5626 161.191 17.577 162.587 17.577V19.7947H162.546ZM180.657 27.1047H178.316V21.5195C178.316 20.3696 177.823 19.6715 176.674 19.6715C175.606 19.6715 174.456 20.575 174.456 21.8891V27.1047H172.115V14.2916H174.415V19.2197C175.031 18.3162 176.222 17.577 177.618 17.577C179.754 17.577 180.698 19.0144 180.698 21.191V27.1047H180.657ZM190.924 27.1047H188.665V26.078C188.049 26.8583 187.146 27.269 185.873 27.269C183.984 27.269 182.71 26.1191 182.71 24.4764C182.71 22.7105 183.819 21.7248 185.749 21.7248H188.542V20.9446C188.542 19.9179 188.008 19.4251 186.283 19.4251C185.298 19.4251 184.435 19.5072 183.409 19.6304L183.203 17.9055C184.189 17.7002 185.38 17.577 186.489 17.577C189.24 17.577 190.883 18.6858 190.883 21.0267V27.1047H190.924ZM188.583 23.614V23.2854H186.53C185.585 23.2854 185.051 23.614 185.051 24.4764C185.051 25.2567 185.544 25.6263 186.53 25.6263C187.803 25.5852 188.583 24.8049 188.583 23.614ZM197.577 27.1869C197.372 27.2279 196.509 27.269 196.304 27.269C194.579 27.269 193.265 26.3655 193.265 24.23V14.2916H195.606V23.9425C195.606 25.0103 195.852 25.3799 196.715 25.3799C196.92 25.3799 197.372 25.3799 197.577 25.3799V27.1869V27.1869ZM203.696 27.1869C203.491 27.2279 202.628 27.269 202.423 27.269C200.698 27.269 199.384 26.3655 199.384 24.23V14.2916H201.725V23.9425C201.725 25.0103 201.971 25.3799 202.834 25.3799C203.039 25.3799 203.491 25.3799 203.696 25.3799V27.1869V27.1869ZM213.963 23.2033H207.31C207.351 24.5996 208.583 25.4209 210.308 25.4209C211.212 25.4209 212.197 25.2977 213.06 25.0513L213.47 26.7351C212.402 27.0637 211.417 27.269 210.267 27.269C206.899 27.269 205.01 25.2977 205.01 22.423C205.01 19.8357 206.735 17.577 209.569 17.577C212.279 17.577 213.922 19.5893 213.922 22.4641V23.2033H213.963ZM211.745 21.5195C211.622 20.1643 210.924 19.384 209.61 19.384C208.378 19.384 207.515 20.1232 207.351 21.5195H211.745ZM23.3265 32.1561H59.3429V33.306H23.3265V32.1561ZM0 27.1047V17.5359L2.21766 14.2505H4.59959L8.41889 8.58316L18.7269 10.5544L22.6283 4.88706L60.8624 14.2505V15.6879H59.3429V27.0637H57.7823V22.9979L56.1807 22.7515V27.0637H54.6612V22.5051L52.8542 22.2177V27.0637H51.3347V21.9713L49.3635 21.6838V27.0637H47.8439V21.4374L45.6263 21.1088V27.0637H44.1478V20.9035L41.6016 20.5339V27.1047H40.0821V20.2875L37.3306 19.8768V27.1047H35.8111V19.6304L32.8131 19.1786V27.1047H31.2936V18.9733L28.2957 18.5216V27.1458H26.7762V18.2752L23.4086 17.7413V27.1047H21.848V17.7413L18.8912 19.1786V27.1047H0ZM57.8234 21.7248V19.9589L56.2218 19.6304V21.4784L57.8234 21.7248ZM54.7023 21.232V19.3429L52.8953 18.9733V20.9446L54.7023 21.232ZM51.3347 20.6571V18.6448L49.3635 18.2341V20.3285L51.3347 20.6571ZM47.8439 20.0821V17.9466L45.6263 17.4949V19.7125L47.8439 20.0821ZM44.1478 19.4661V17.1663L41.6016 16.6324V19.0144L44.1478 19.4661ZM40.0821 18.809V16.345L37.3306 15.77V18.3162L40.0821 18.809ZM35.77 18.1109V15.4825L32.7721 14.8665V17.6181L35.77 18.1109ZM31.2526 17.3717V14.5791L28.2546 13.963V16.8789L31.2526 17.3717ZM26.694 16.5914V13.6345L23.3265 12.9363V16.0575L26.694 16.5914ZM19.4661 6.65298H11.7043V5.46201H12.4025V0H18.768V5.42095H19.4661V6.65298Z"></path></svg>