<svg xmlns="http://www.w3.org/2000/svg" width="260" height="52" viewBox="0 0 215 40" fill="white" class="navbar-brand-logo"><path d="M214.838 22.3004C214.838 24.2096 213.06 25.4826 210.36 25.4826C208.977 25.4826 207.31 25.0885 205.993 24.5174L206.585 22.6518C207.88 23.1128 209.241 23.4197 210.338 23.4197C211.743 23.4197 212.226 23.0032 212.226 22.41C212.226 21.7738 211.808 21.5981 210.185 20.9403C207.331 19.7765 206.388 19.2059 206.388 17.4058C206.388 15.4085 207.924 14.4214 210.712 14.4214C211.743 14.4214 213.302 14.5971 214.464 14.9916L214.004 16.9453C213.125 16.704 211.808 16.4852 210.755 16.4852C209.35 16.4852 208.955 16.7471 208.955 17.3187C208.955 18.02 209.46 18.1957 211.348 18.9426C214.026 19.9958 214.838 20.5008 214.838 22.3004M204.143 22.3004C204.143 24.2096 202.364 25.4826 199.665 25.4826C198.282 25.4826 196.615 25.0885 195.297 24.5174L195.891 22.6518C197.185 23.1128 198.546 23.4197 199.643 23.4197C201.048 23.4197 201.531 23.0032 201.531 22.41C201.531 21.7738 201.114 21.5981 199.489 20.9403C196.636 19.7765 195.692 19.2059 195.692 17.4058C195.692 15.4085 197.228 14.4214 200.016 14.4214C201.048 14.4214 202.606 14.5971 203.769 14.9916L203.309 16.9453C202.431 16.704 201.114 16.4852 200.06 16.4852C198.655 16.4852 198.26 16.7471 198.26 17.3187C198.26 18.0201 198.765 18.1957 200.653 18.9426C203.331 19.9958 204.143 20.5008 204.143 22.3004M190.72 18.9426C190.565 17.4058 189.776 16.4852 188.282 16.4852C186.9 16.4852 185.913 17.3187 185.715 18.9426H190.72ZM193.265 20.8297H185.693C185.737 22.4321 187.142 23.3757 189.117 23.3757C190.127 23.3757 191.268 23.2229 192.256 22.9587L192.738 24.8904C191.531 25.2849 190.412 25.4826 189.095 25.4826C185.232 25.4826 183.081 23.2449 183.081 19.9522C183.081 17.0104 185.034 14.4214 188.282 14.4214C191.377 14.4214 193.265 16.704 193.265 20.0178V20.8297V20.8297ZM181.576 16.9453C179.205 16.9453 177.998 18.4155 177.998 20.5444V25.3073H175.32V14.6186H177.932V16.5498C178.393 15.5627 179.973 14.4214 181.576 14.4214V16.9453V16.9453ZM169.84 19.9297C169.84 17.8669 168.831 16.5288 167.207 16.5288C165.472 16.5288 164.638 17.9329 164.638 19.7981C164.638 21.6642 165.472 23.0472 167.207 23.0472C168.809 23.0472 169.84 21.9935 169.84 19.9297M172.518 24.0559C172.518 27.3051 170.301 29.1042 166.679 29.1042C165.736 29.1042 164.396 29.0171 163.058 28.6216L163.409 26.7785C164.594 27.0413 165.494 27.1514 166.372 27.1514C168.962 27.1514 169.84 26.1633 169.84 24.4069V23.5514C169.072 24.5826 167.865 25.1321 166.548 25.1321C163.519 25.1321 161.939 22.5202 161.939 19.7981C161.939 16.9668 163.519 14.4214 166.548 14.4214C167.865 14.4214 169.007 14.9696 169.84 16.1329V14.6186H172.518V24.056V24.0559ZM159.649 25.3074H156.971V18.9201C156.971 17.6035 156.38 16.8132 155.041 16.8132C153.834 16.8132 152.539 17.8669 152.539 19.36V25.3074H149.861V14.6186H152.473V16.309C153.153 15.2999 154.536 14.4214 156.116 14.4214C158.531 14.4214 159.65 16.0673 159.65 18.5251V25.3073L159.649 25.3074ZM144.944 19.9522C144.944 17.8889 143.891 16.5063 142.179 16.5063C140.468 16.5063 139.457 17.8889 139.457 19.9522C139.457 22.0156 140.468 23.3757 142.179 23.3757C143.891 23.3757 144.944 22.0156 144.944 19.9522ZM147.622 19.9522C147.622 22.8936 145.427 25.4826 142.179 25.4826C138.931 25.4826 136.758 22.8936 136.758 19.9522C136.758 17.0104 138.931 14.4214 142.179 14.4214C145.427 14.4214 147.622 17.0104 147.622 19.9522ZM135.403 24.9124C134.13 25.3734 132.813 25.5491 131.365 25.5491C126.602 25.5491 123.244 22.3885 123.244 17.9985C123.244 13.609 126.602 10.4704 131.365 10.4704C132.967 10.4704 134.218 10.6456 135.403 11.0626L134.855 13.3677C133.779 13.0819 132.748 12.9507 131.717 12.9507C128.029 12.9507 126.054 15.0141 126.054 17.9985C126.054 20.9839 128.029 23.0688 131.717 23.0688C132.857 23.0688 133.582 23.0032 134.855 22.6738L135.403 24.9124V24.9124ZM121.199 16.9453C118.828 16.9453 117.621 18.4155 117.621 20.5444V25.3074H114.944V14.6186H117.556V16.5499C118.017 15.5627 119.597 14.4214 121.199 14.4214V16.9453V16.9453ZM112.302 25.3074H109.625V18.9201C109.625 17.6035 109.075 16.8132 107.736 16.8132C106.529 16.8132 105.212 17.8669 105.212 19.36V25.3074H102.535V10.6901H105.146V16.309C105.826 15.2999 107.209 14.4214 108.79 14.4214C111.204 14.4214 112.302 16.0673 112.302 18.5251V25.3074V25.3074ZM84.1763 15.2558C84.1763 13.8723 83.1011 12.9727 81.829 12.9727H77.5267V17.582H81.829C83.1671 17.582 84.1763 16.6375 84.1763 15.2558M88.5663 25.3074H85.1204L81.1038 19.7765H77.5267V25.3074H74.717V10.6901H82.3332C85.1429 10.6901 87.0521 12.7975 87.0521 15.2558C87.0521 17.0769 85.9764 18.7013 84.1988 19.3816L88.5663 25.3073V25.3074ZM99.7113 25.3083H97.0778V23.5963C96.3975 24.605 95.0365 25.483 93.4562 25.483C91.0424 25.483 89.9222 23.8592 89.9222 21.4013V14.6196H92.5998V20.9839C92.5998 22.3009 93.1709 23.0913 94.5099 23.0913C95.7168 23.0913 97.0122 22.0596 97.0122 20.5674V14.6196H99.7113V25.3083ZM26.5906 31.0307L67.641 31.0326V32.3693H26.5906V31.0307H26.5906ZM131.615 39.8552H129.986V34.0255L127.589 38.3438H126.648L124.263 34.0124V39.8552H122.634V31.0321H124.263L127.125 36.1455L129.986 31.0321H131.615V39.8552ZM91.1905 35.4413C91.1905 33.7608 89.8842 32.3819 88.1695 32.3819C86.4552 32.3819 85.149 33.7608 85.149 35.4413C85.149 37.1224 86.4552 38.4918 88.1695 38.4918C89.8842 38.4918 91.1905 37.1224 91.1905 35.4413ZM92.6691 35.4437C92.6691 37.9465 90.7234 39.9878 88.1695 39.9878C85.6165 39.9878 83.6703 37.9465 83.6703 35.4437C83.6703 32.9395 85.6165 30.8869 88.1695 30.8869C90.7234 30.8869 92.6691 32.9395 92.6691 35.4437M82.5487 37.3374C82.5487 38.6094 81.5409 39.8552 79.9386 39.8552H74.7165V31.0321H79.5151C81.25 31.0321 82.2437 31.9326 82.2437 33.3105C82.2437 34.0124 81.9673 34.8468 80.9478 35.2179C82.1261 35.5763 82.5487 36.4763 82.5487 37.3374ZM80.8522 37.2582C80.8522 36.5292 80.4155 35.9993 79.4621 35.9993H76.3591V38.5036H79.4621C80.3762 38.5036 80.8522 38.013 80.8522 37.2582ZM80.5608 33.5223C80.5608 32.7675 80.0581 32.3693 79.1435 32.3693H76.3591V34.7273H79.1299C80.0314 34.7273 80.5608 34.2771 80.5608 33.5223M101.336 39.6158C100.568 39.8946 99.7727 40 98.899 40C96.0241 40 93.9973 38.0931 93.9973 35.4437C93.9973 32.7938 96.0241 30.8995 98.899 30.8995C99.866 30.8995 100.621 31.0054 101.336 31.257L101.004 32.6481C100.356 32.4756 99.7334 32.396 99.1102 32.396C96.8848 32.396 95.6929 33.6422 95.6929 35.4437C95.6929 37.2447 96.8848 38.5036 99.1102 38.5036C99.7994 38.5036 100.237 38.4642 101.004 38.2651L101.336 39.6158ZM110.722 39.8552H109.027V36.1319H104.894V39.8552H103.211V31.0321H104.894V34.635H109.027V31.0321H110.722V39.8552V39.8552ZM120.527 36.3306C120.527 38.2782 119.042 40 116.684 40C114.327 40 112.83 38.2782 112.83 36.3306V31.0321H114.526V36.3437C114.526 37.6954 115.427 38.49 116.684 38.49C117.943 38.49 118.844 37.6691 118.844 36.3437V31.0321H120.527V36.3306H120.527ZM39.7592 10.6981V6.93872L32.693 8.18684V25.3069H0V5.75899L32.6935 0V5.75712L54.2874 1.90733L67.6935 10.6892V25.3069H60.289V16.0912L57.7347 14.4204V25.3069H54.2972V16.0912L51.7429 14.4204V25.3069H48.3053V16.0912L45.751 14.4204V25.3069H42.3126V16.0912L39.7587 14.4204V25.3069H35.2469V7.73894L39.7592 10.6981H39.7592ZM45.751 10.6892V5.87519L42.3126 6.48519V10.6892H45.751ZM51.7429 10.6892V4.81212L48.3053 5.42213V10.6892H51.7429V10.6892ZM57.7347 10.6892V6.92419L54.2972 4.67344V10.6892H57.7347ZM60.289 8.59585V10.6892H63.4843L60.289 8.59585Z"></path></svg>