<?xml version="1.0" encoding="UTF-8"?><svg id="Ebene_2" xmlns="http://www.w3.org/2000/svg" viewBox="0 0 36 35.5"><g id="Ebene_1-2"><path d="M0,35.5v-3H4V3c0-.83,.29-1.54,.88-2.12s1.29-.88,2.12-.88H29c.83,0,1.54,.29,2.12,.88s.88,1.29,.88,2.12v29.5h4v3H0Zm24-3h5V3h-8.7v-.7c1.07,.17,1.95,.67,2.65,1.52,.7,.85,1.05,1.81,1.05,2.88v25.8Zm-7.95-13.5c.4,0,.74-.15,1.02-.45,.28-.3,.42-.67,.42-1.1,0-.4-.14-.74-.42-1.02-.28-.28-.64-.42-1.07-.42-.4,0-.75,.14-1.05,.42-.3,.28-.45,.64-.45,1.08,0,.4,.15,.75,.45,1.05,.3,.3,.67,.45,1.1,.45Z" style="fill:#0c4a6e;"/></g></svg>