<svg width="121" height="78" viewBox="0 0 121 78" fill="none" xmlns="http://www.w3.org/2000/svg">
<rect x="1.44043" y="43.1199" width="33.88" height="33.88" rx="1.76" stroke="white" stroke-width="2"/>
<path d="M13.6424 61.0015L20.3393 67.6984C20.8306 68.1897 21.6708 67.8417 21.6708 67.1468L21.6708 53.753C21.6708 53.0581 20.8306 52.7101 20.3393 53.2015L13.6424 59.8984C13.3378 60.203 13.3378 60.6968 13.6424 61.0015Z" fill="white"/>
<rect x="43.5605" y="43.12" width="33.88" height="33.88" rx="1.76" stroke="white" stroke-width="2"/>
<path d="M61.0516 65.1884L67.7485 58.4915C68.2399 58.0002 67.8919 57.16 67.197 57.16L53.8032 57.16C53.1083 57.16 52.7603 58.0002 53.2516 58.4915L59.9485 65.1884C60.2531 65.4931 60.747 65.4931 61.0516 65.1884Z" fill="white"/>
<rect x="85.6816" y="43.12" width="33.88" height="33.88" rx="1.76" stroke="white" stroke-width="2"/>
<path d="M107.361 59.8984L100.664 53.2015C100.172 52.7102 99.3321 53.0582 99.3321 53.7531L99.3321 67.1469C99.3321 67.8418 100.172 68.1898 100.664 67.6984L107.361 61.0015C107.665 60.6969 107.665 60.2031 107.361 59.8984Z" fill="white"/>
<path d="M59.9484 13.5916L53.2515 20.2885C52.7601 20.7799 53.1081 21.62 53.803 21.62H67.1968C67.8917 21.62 68.2397 20.7799 67.7484 20.2885L61.0515 13.5916C60.7469 13.287 60.253 13.287 59.9484 13.5916Z" fill="white"/>
<rect x="43.5605" y="1" width="33.88" height="33.88" rx="1.76" stroke="white" stroke-width="2"/>
</svg>
