<?xml version="1.0" encoding="UTF-8"?>
<!-- Generator: Adobe Illustrator 26.0.2, SVG Export Plug-In . SVG Version: 6.00 Build 0)  -->
<svg version="1.1" id="Ebene_1" xmlns="http://www.w3.org/2000/svg" xmlns:xlink="http://www.w3.org/1999/xlink" x="0px" y="0px" viewBox="0 0 452.1 110.6" style="enable-background:new 0 0 452.1 110.6;" xml:space="preserve">
<style type="text/css">
	.st0{fill:#0AB4FF;}
</style>
<path class="st0" d="M138.1,100.3h-3.2l-9.8-25.6h3.5l7.8,21.1l7.8-21.1h3.5L138.1,100.3z M150.9,92c0.2,3.7,2.6,5.8,6.7,5.8  c1.8,0,3.9-0.3,5.5-0.8l0.7,2.5c-2.1,0.7-4.2,1-6.2,1c-6.4,0-10.1-4-10.1-9.7c0-5.2,3.3-9.7,8.9-9.7c5.4,0,8.5,4.2,8.5,9.7v1h-14V92  z M156.4,84c-3.1,0-5.2,2-5.5,5.5h10.7C161.3,86.1,159.6,84,156.4,84z M173.6,91.2v9h-3.4V81.5h3.3v3.7c1-2,3.6-4,6.4-4v3  C176.4,84.2,173.6,87.8,173.6,91.2z M195.6,100.3V98c-1.2,1.6-3.2,2.5-5.8,2.5c-3.8,0-6.3-2-6.3-5.5s2.2-5.4,6.1-5.4h6v-1.9  c0-2.3-1.2-3.8-5-3.8c-1.8,0-3.7,0.1-5.7,0.5l-0.3-2.6c2-0.5,4.2-0.7,6.3-0.7c5.3,0,8.2,2.4,8.2,6.5v12.5h-3.5V100.3z M195.5,92.1  h-5.2c-2.4,0-3.5,0.9-3.5,3c0,2,1.3,2.8,3.5,2.8c3.2,0,5.2-1.8,5.2-4.7V92.1z M217.5,100.3V88.5c0-2.8-1.2-4.2-4-4.2  c-2.7,0-5.4,2.3-5.4,6.1v9.9h-3.4V81.5h3.3v3.3c1.3-2.1,3.7-3.6,6.5-3.6c4.2,0,6.3,2.8,6.3,6.9v12.2H217.5z M232.9,100.6  c-2.3,0-5.2-0.7-7.2-1.7l0.8-2.5c2,0.8,4.3,1.4,6.3,1.4c2.7,0,4.2-0.8,4.2-2.4c0-1.5-0.8-1.8-4.8-3.4c-4.6-1.9-5.8-3.2-5.8-6  c0-3.3,2.8-4.8,7-4.8c1.8,0,4,0.3,6.2,0.9l-0.5,2.6c-1.6-0.4-3.7-0.8-5.5-0.8c-2.8,0-3.9,0.7-3.9,2.1s0.8,2,4.3,3.4  c5,2,6.3,3,6.3,5.9C240.4,98.5,237.5,100.6,232.9,100.6z M251.1,100.6c-3.1,0-5.1-1.5-5.1-5.5v-11h-2.5v-2.5h2.5v-5.3h3.4v5.3h3.7  v2.5h-3.7v11c0,2.3,0.8,2.9,2.2,2.9c0.5,0,1.2-0.1,1.8-0.2l0.3,2.5C252.9,100.5,251.9,100.6,251.1,100.6z M269.4,100.3V98  c-1.2,1.6-3.2,2.5-5.8,2.5c-3.8,0-6.3-2-6.3-5.5s2.2-5.4,6.1-5.4h6v-1.9c0-2.3-1.2-3.8-5-3.8c-1.8,0-3.7,0.1-5.7,0.5l-0.3-2.6  c2-0.5,4.2-0.7,6.3-0.7c5.3,0,8.2,2.4,8.2,6.5v12.5h-3.5V100.3z M269.3,92.1h-5.2c-2.4,0-3.5,0.9-3.5,3c0,2,1.3,2.8,3.5,2.8  c3.2,0,5.2-1.8,5.2-4.7V92.1z M283.7,100.5c-3.2,0-5.3-1.6-5.3-5.5V74.6h3.3v20.1c0,2.2,0.7,3,2.5,3h1.7v2.7h-2.2V100.5z   M296.5,100.6c-3.1,0-5.1-1.5-5.1-5.5v-11h-2.5v-2.5h2.5v-5.3h3.4v5.3h3.7v2.5h-3.7v11c0,2.3,0.8,2.9,2.2,2.9c0.5,0,1.2-0.1,1.8-0.2  l0.3,2.5C298.3,100.5,297.3,100.6,296.5,100.6z M316.5,100.3V97c-1.3,2.1-3.7,3.6-6.5,3.6c-4.2,0-6.3-2.7-6.3-6.9V81.5h3.4v11.7  c0,2.8,1.2,4.2,4,4.2c2.7,0,5.4-2.3,5.4-6v-9.9h3.4v18.7h-3.4V100.3z M339.2,100.3V88.5c0-2.8-1.2-4.2-4-4.2c-2.7,0-5.4,2.3-5.4,6.1  v9.9h-3.4V81.5h3.3v3.3c1.3-2.1,3.7-3.6,6.5-3.6c4.2,0,6.3,2.8,6.3,6.9v12.2H339.2z M355.5,107.1c-1.8,0-4.2-0.3-6.3-1l0.5-2.4  c2,0.5,3.7,0.8,5.4,0.8c4.7,0,6.4-1.9,6.4-5.7v-2c-1.3,2.1-3.6,3.3-6.1,3.3c-5.5,0-8-4.5-8-9.4c0-5,2.5-9.5,8-9.5  c2.5,0,4.7,1.2,6.1,3.4v-3.1h3.4v17C364.9,104,361.6,107.1,355.5,107.1z M356.1,84c-3.7,0-5.2,2.9-5.2,6.7c0,3.7,1.6,6.6,5.2,6.6  c3.5,0,5.5-2.4,5.5-6.5C361.5,86.6,359.5,84,356.1,84z M373.2,92c0.2,3.7,2.6,5.8,6.7,5.8c1.8,0,3.9-0.3,5.5-0.8l0.7,2.5  c-2.1,0.7-4.2,1-6.2,1c-6.4,0-10.1-4-10.1-9.7c0-5.2,3.3-9.7,8.9-9.7c5.4,0,8.5,4.2,8.5,9.7v1h-14V92z M378.7,84  c-3.1,0-5.2,2-5.5,5.5h10.7C383.6,86.1,381.8,84,378.7,84z M404.8,100.3V88.5c0-2.8-1.2-4.2-4-4.2c-2.7,0-5.4,2.3-5.4,6.1v9.9H392  V81.5h3.3v3.3c1.3-2.1,3.7-3.6,6.5-3.6c4.2,0,6.3,2.8,6.3,6.9v12.2H404.8z M281.7,15H292v18.5h20.3V15h10.4v46.6h-10.4V42.8H292  v18.8h-10.3V15z M199.5,53.1c7.3,0,14.1-5.8,14.1-14.9c0-9-6.8-14.9-14.1-14.9s-14.1,5.9-14.1,14.9  C185.4,47.3,192.1,53.1,199.5,53.1z M199.5,14c13.4,0,24.3,10.9,24.3,24.3s-10.9,24.3-24.3,24.3c-13.4,0-24.3-10.8-24.3-24.3  C175.2,25.3,185.6,14,199.5,14z M151.1,42.3h-15.2V53h15.2c4.2,0,6.2-2.2,6.2-5.3C157.3,44.5,155.3,42.3,151.1,42.3z M149.3,23.5  h-13.4v10.2h13.4c4.5,0,6.4-2,6.4-5.1C155.7,25.2,153.6,23.5,149.3,23.5z M160.8,37.1c3.9,1.6,7.4,4.4,7.4,11  c0,7.7-5.3,13.4-13.6,13.4h-29.4V15h27.1c8.8,0,14.3,4.9,14.3,12.1C166.8,30.1,166.2,34.6,160.8,37.1z M395.2,33.3v28.2h-9.9V15h9.9  l14.2,24.5L423.7,15h9.9v46.6h-9.9V33.3L412,53h-5.2L395.2,33.3z M343.3,15v26.6c0,6.8,3.8,11.4,10.6,11.4c6.7,0,10.6-4.7,10.6-11.4  V15h10.3v27.2c0.1,10.8-7.3,20.2-20.9,20.2S333,53.1,333,42.2V15H343.3z M269,51.7l2,8.7c-3.9,1.4-8.5,2.1-13.4,2.1  c-15.5,0-26.2-10.8-26.2-24.2s10.5-24.4,26.2-24.4c4.8,0,9.6,0.7,13.7,2.2L269,25c-3.3-0.9-6.5-1.6-10.1-1.6  c-11.5,0-17.1,6.3-17.1,14.9c0,8.5,5.5,14.8,17.1,14.8C262.4,53.1,265.5,52.8,269,51.7z M56.1,71.1L24.7,56.7V15l-6.5-3v49.6  L56.1,79L94,61.5V11.9l-6.5,3v41.7L56.1,71.1z M31.2,51.8L56,63.2l24.8-11.4V5.1L56.1,16.5L31.2,5.1V51.8z M18.2,100.3H94v-5.8H18.2  V100.3z"/>
</svg>