<svg xmlns="http://www.w3.org/2000/svg" width="21" height="21" viewBox="0 0 21 21" fill="none">
<path d="M13.125 16.625L7.875 14.7787V4.375L13.125 6.22125M17.9375 2.625C17.885 2.625 17.8413 2.625 17.7975 2.625L13.125 4.4625L7.875 2.625L2.94 4.2875C2.75625 4.34875 2.625 4.50625 2.625 4.7075V17.9375C2.625 18.0535 2.67109 18.1648 2.75314 18.2469C2.83519 18.3289 2.94647 18.375 3.0625 18.375C3.10625 18.375 3.15875 18.375 3.2025 18.3487L7.875 16.5375L13.125 18.375L18.06 16.7125C18.2437 16.625 18.375 16.4938 18.375 16.2925V3.0625C18.375 2.94647 18.3289 2.83519 18.2469 2.75314C18.1648 2.67109 18.0535 2.625 17.9375 2.625Z" fill="white"/>
</svg>