<svg width="245" height="54" viewBox="0 0 245 54" fill="none" xmlns="http://www.w3.org/2000/svg">
<path d="M74.6521 24.3018C74.6521 24.6346 73.8815 25.0199 72.3404 25.4577C72.4805 27.2791 72.5505 28.829 72.5505 30.1075C72.5505 32.3141 72.2703 33.4175 71.7099 33.4175C71.4122 33.4175 71.1757 33.2336 71.0006 32.8658C70.8255 32.498 70.6854 31.8588 70.5803 30.9481C70.4577 29.2668 70.3263 27.6206 70.1862 26.0094C69.3981 26.2195 68.6801 26.4122 68.0321 26.5873C67.3841 26.7449 66.4034 27.0076 65.0899 27.3754C63.5487 31.4034 62.638 33.4175 62.3578 33.4175C62.0776 33.4175 61.7711 33.2511 61.4384 32.9183C61.1232 32.5681 60.9655 32.2003 60.9655 31.815C60.9655 31.6399 61.4647 30.3964 62.4629 28.0847H62.279C61.9288 28.0847 61.6135 27.9708 61.3333 27.7432C61.0706 27.5155 60.9393 27.2353 60.9393 26.9025C60.9393 26.5523 61.8062 26.0969 63.54 25.5365C63.8202 24.906 64.0479 24.3369 64.223 23.829C64.6258 22.8307 65.1862 21.4647 65.9043 19.7309C66.6223 17.9971 67.0776 16.8938 67.2703 16.4209C67.4629 15.9305 67.7957 15.519 68.2685 15.1862C68.7589 14.8359 69.2318 14.6608 69.6871 14.6608C70.23 14.6608 70.7116 15.5277 71.1319 17.2615C71.5698 18.9953 71.92 21.1407 72.1827 23.6976C72.6731 23.6451 73.1022 23.6188 73.47 23.6188C74.2581 23.6188 74.6521 23.8465 74.6521 24.3018ZM66.0619 24.8535C67.3053 24.5207 68.6188 24.2405 70.0023 24.0129C69.6871 21.0181 69.3806 18.7677 69.0829 17.2615C68.2948 19.0654 67.2878 21.596 66.0619 24.8535ZM88.2441 21.8325C88.2441 21.9901 87.4647 22.8132 85.906 24.3018C85.3281 24.8623 84.794 25.5278 84.3036 26.2983C83.8307 27.0514 83.5943 27.7432 83.5943 28.3737C83.5943 29.0041 83.7782 29.5908 84.146 30.1337C84.5313 30.6591 84.9428 31.0619 85.3806 31.3421C85.836 31.6048 86.2475 31.8675 86.6153 32.1302C87.0006 32.3929 87.1933 32.6118 87.1933 32.787C87.1933 33.2248 86.843 33.4437 86.1425 33.4437C85.4595 33.4437 84.6363 33.0584 83.6731 32.2879C82.7274 31.4998 82.1407 30.6241 81.913 29.6609C81.8255 29.4857 81.7554 29.3194 81.7029 29.1617C80.512 30.773 79.6451 31.8938 79.1022 32.5243C78.5768 33.1372 78.1827 33.4437 77.92 33.4437C77.6573 33.4437 77.3684 33.2423 77.0531 32.8395C76.7379 32.4192 76.5803 32.0777 76.5803 31.815C76.5803 31.5348 76.8605 30.4052 77.4209 28.4262C77.9988 26.4297 78.568 24.0391 79.1284 21.2545C79.7064 18.4699 79.9953 15.9831 79.9953 13.7939C79.9953 13.5137 80.0304 13.3211 80.1004 13.216C80.188 13.1109 80.3631 13.0584 80.6258 13.0584C80.8885 13.0584 81.2125 13.3211 81.5978 13.8465C81.9831 14.3543 82.1757 14.8535 82.1757 15.3438C82.1757 16.9025 81.8605 19.0829 81.23 21.885C80.5995 24.6871 79.8465 27.3491 78.9708 29.871C80.9498 27.0514 82.6573 24.7747 84.0934 23.0409C85.547 21.2896 86.4402 20.4139 86.7729 20.4139C87.1232 20.4139 87.456 20.5803 87.7712 20.913C88.0864 21.2458 88.2441 21.5523 88.2441 21.8325ZM91.889 30.8167C91.889 31.1495 92.0816 31.3159 92.4669 31.3159C93.1324 31.3159 93.938 31.132 94.8837 30.7642C95.847 30.3789 96.3811 30.1863 96.4862 30.1863C96.8014 30.1863 96.9591 30.3526 96.9591 30.6854C96.9591 31.1933 96.4337 31.78 95.3829 32.4455C94.3496 33.111 93.4039 33.4437 92.5457 33.4437C91.7051 33.4437 91.0046 33.2161 90.4441 32.7607C89.8837 32.2879 89.6035 31.8062 89.6035 31.3159C89.6035 30.8255 89.7086 30.2038 89.9188 29.4507C90.1289 28.6801 90.4266 27.6731 90.8119 26.4297C91.2147 25.1687 91.53 24.1267 91.7576 23.3036C90.9345 23.4962 90.3829 23.5925 90.1026 23.5925C89.8224 23.5925 89.5422 23.4524 89.262 23.1722C88.9993 22.8745 88.868 22.5943 88.868 22.3316C88.868 21.9113 90.0063 21.5085 92.283 21.1232C92.5983 19.6696 92.7559 18.3824 92.7559 17.2615C92.7559 16.7361 92.931 16.4734 93.2813 16.4734C93.579 16.4734 93.9468 16.6661 94.3846 17.0514C94.8224 17.4191 95.0414 17.8395 95.0414 18.3123C95.0414 18.7852 94.8925 19.6171 94.5948 20.8079C95.593 20.7204 96.3899 20.6766 96.9853 20.6766C98.0361 20.6766 98.5615 20.9043 98.5615 21.3596C98.5615 21.6223 98.2725 21.8412 97.6946 22.0164C97.1342 22.1915 95.9433 22.4629 94.1219 22.8307C93.7541 24.2143 93.29 25.7992 92.7296 27.5856C92.1692 29.3544 91.889 30.4315 91.889 30.8167ZM108.405 21.1495C108.475 20.8692 108.545 20.6766 108.615 20.5715C108.686 20.4664 108.834 20.4139 109.062 20.4139C109.307 20.4139 109.596 20.6416 109.929 21.0969C110.279 21.5523 110.454 21.9901 110.454 22.4104C110.454 22.6381 110.069 23.9866 109.298 26.456C108.528 28.9253 107.932 30.8868 107.512 32.3404C107.302 33.0759 107.004 33.4437 106.619 33.4437C106.391 33.4437 106.199 33.3474 106.041 33.1548C105.883 32.9621 105.805 32.6118 105.805 32.104C105.805 31.5961 106.006 30.6766 106.409 29.3456C105.673 30.5365 104.876 31.5173 104.018 32.2879C103.16 33.0584 102.372 33.4437 101.654 33.4437C100.953 33.4437 100.288 33.111 99.6575 32.4455C99.027 31.78 98.7117 31.097 98.7117 30.3964C98.7117 28.7327 99.1934 26.6574 100.157 24.1705C101.137 21.6661 101.952 20.4139 102.6 20.4139C102.915 20.4139 103.186 20.5628 103.414 20.8605C103.659 21.1407 103.782 21.4647 103.782 21.8325C103.782 21.9901 103.545 22.5593 103.073 23.54C102.6 24.5032 102.127 25.6416 101.654 26.9551C101.181 28.2511 100.945 29.3894 100.945 30.3702C100.945 30.6504 101.032 30.8868 101.207 31.0794C101.383 31.2546 101.593 31.3421 101.838 31.3421C102.503 31.3421 103.291 30.7554 104.202 29.5821C105.13 28.4087 105.971 27.0426 106.724 25.484C107.477 23.9253 108.038 22.4805 108.405 21.1495ZM122.235 24.7747C122.235 25.7029 121.727 26.4647 120.711 27.0602C119.713 27.6381 118.575 27.9271 117.296 27.9271C116.035 27.9271 114.888 27.787 113.855 27.5067C113.61 28.2773 113.487 28.9691 113.487 29.5821C113.487 30.1775 113.671 30.6416 114.039 30.9744C114.424 31.3071 115.046 31.4735 115.904 31.4735C116.78 31.4735 117.673 31.3246 118.583 31.0269C119.512 30.7117 120.019 30.554 120.107 30.554C120.562 30.554 120.79 30.7292 120.79 31.0794C120.79 31.5523 120.256 32.0689 119.188 32.6294C118.119 33.1723 117.077 33.4437 116.062 33.4437C114.695 33.4437 113.583 33.0409 112.725 32.2353C111.867 31.4122 111.438 30.3789 111.438 29.1355C111.438 27.892 111.771 26.5961 112.436 25.2475C113.102 23.8815 113.96 22.7344 115.011 21.8062C116.062 20.878 117.104 20.4139 118.137 20.4139C119.17 20.4139 120.107 20.9043 120.948 21.885C121.806 22.8658 122.235 23.829 122.235 24.7747ZM118.268 22.4892C117.62 22.4892 116.946 22.8307 116.245 23.5137C115.545 24.1792 114.949 25.0111 114.459 26.0094C115.16 26.167 115.956 26.2458 116.85 26.2458C117.743 26.2458 118.522 26.1057 119.188 25.8255C119.853 25.5278 120.186 25.1425 120.186 24.6696C120.186 24.1968 119.967 23.7151 119.529 23.2248C119.109 22.7344 118.688 22.4892 118.268 22.4892ZM128.755 15.265C128.755 18.5575 128.072 22.8307 126.706 28.0847C125.83 31.6574 125.217 33.4437 124.867 33.4437C124.622 33.4437 124.333 33.2511 124 32.8658C123.685 32.4805 123.527 32.1828 123.527 31.9726C123.527 31.7625 123.781 30.6766 124.289 28.7152C124.797 26.7537 125.305 24.3456 125.813 21.491C126.321 18.6188 126.575 16.0356 126.575 13.7414C126.575 13.4962 126.61 13.3211 126.68 13.216C126.75 13.1109 126.899 13.0584 127.126 13.0584C127.354 13.0584 127.678 13.3123 128.098 13.8202C128.536 14.3106 128.755 14.7922 128.755 15.265ZM135.194 15.265C135.194 18.5575 134.511 22.8307 133.145 28.0847C132.269 31.6574 131.656 33.4437 131.306 33.4437C131.061 33.4437 130.772 33.2511 130.439 32.8658C130.124 32.4805 129.966 32.1828 129.966 31.9726C129.966 31.7625 130.22 30.6766 130.728 28.7152C131.236 26.7537 131.744 24.3456 132.252 21.491C132.76 18.6188 133.014 16.0356 133.014 13.7414C133.014 13.4962 133.049 13.3211 133.119 13.216C133.189 13.1109 133.338 13.0584 133.565 13.0584C133.793 13.0584 134.117 13.3123 134.537 13.8202C134.975 14.3106 135.194 14.7922 135.194 15.265ZM146.94 24.7747C146.94 25.7029 146.432 26.4647 145.416 27.0602C144.418 27.6381 143.28 27.9271 142.001 27.9271C140.74 27.9271 139.593 27.787 138.56 27.5067C138.315 28.2773 138.192 28.9691 138.192 29.5821C138.192 30.1775 138.376 30.6416 138.744 30.9744C139.129 31.3071 139.751 31.4735 140.609 31.4735C141.484 31.4735 142.378 31.3246 143.288 31.0269C144.217 30.7117 144.724 30.554 144.812 30.554C145.267 30.554 145.495 30.7292 145.495 31.0794C145.495 31.5523 144.961 32.0689 143.893 32.6294C142.824 33.1723 141.782 33.4437 140.766 33.4437C139.4 33.4437 138.288 33.0409 137.43 32.2353C136.572 31.4122 136.143 30.3789 136.143 29.1355C136.143 27.892 136.476 26.5961 137.141 25.2475C137.807 23.8815 138.665 22.7344 139.716 21.8062C140.766 20.878 141.808 20.4139 142.842 20.4139C143.875 20.4139 144.812 20.9043 145.653 21.885C146.511 22.8658 146.94 23.829 146.94 24.7747ZM142.973 22.4892C142.325 22.4892 141.651 22.8307 140.95 23.5137C140.25 24.1792 139.654 25.0111 139.164 26.0094C139.864 26.167 140.661 26.2458 141.554 26.2458C142.448 26.2458 143.227 26.1057 143.893 25.8255C144.558 25.5278 144.891 25.1425 144.891 24.6696C144.891 24.1968 144.672 23.7151 144.234 23.2248C143.814 22.7344 143.393 22.4892 142.973 22.4892ZM172.699 19.3106C172.699 21.202 171.788 22.8045 169.967 24.1179C168.163 25.4314 165.773 26.3771 162.795 26.9551C161.517 31.2808 160.755 33.4437 160.51 33.4437C160.265 33.4437 159.976 33.2511 159.643 32.8658C159.31 32.463 159.144 32.0689 159.144 31.6836C159.144 31.2808 159.398 30.23 159.906 28.5313C161.482 23.2948 162.305 19.6433 162.375 17.5768C161.955 17.1915 161.744 16.8412 161.744 16.526C161.744 16.0881 162.34 15.6678 163.531 15.265C164.722 14.8622 165.86 14.6608 166.946 14.6608C168.627 14.6608 170.002 15.0899 171.07 15.948C172.156 16.8062 172.699 17.927 172.699 19.3106ZM170.387 19.4682C170.387 18.6976 170.09 18.0671 169.494 17.5768C168.916 17.0689 168.216 16.8149 167.392 16.8149C166.569 16.8149 165.571 17.0776 164.398 17.603C164.573 17.9883 164.66 18.3473 164.66 18.6801C164.66 19.6608 164.231 21.7361 163.373 24.906C165.475 24.3456 167.165 23.575 168.443 22.5943C169.739 21.596 170.387 20.554 170.387 19.4682ZM181.026 24.8798C181.026 24.2843 180.929 23.7239 180.737 23.1985C180.544 22.6556 180.264 22.2615 179.896 22.0164C178.688 22.3491 177.646 23.2861 176.77 24.8272C175.912 26.3509 175.483 27.787 175.483 29.1355C175.483 30.484 175.816 31.3246 176.481 31.6574C177.742 31.4122 178.81 30.554 179.686 29.0829C180.579 27.5943 181.026 26.1933 181.026 24.8798ZM174.117 25.1162C174.73 23.7502 175.527 22.6293 176.507 21.7537C177.506 20.8605 178.521 20.4139 179.555 20.4139C180.605 20.4139 181.481 20.8605 182.182 21.7537C182.882 22.6293 183.232 23.7064 183.232 24.9848C183.232 26.2458 182.926 27.5418 182.313 28.8728C181.7 30.1863 180.851 31.2808 179.765 32.1565C178.696 33.0146 177.558 33.4437 176.35 33.4437C175.456 33.4437 174.712 33.0322 174.117 32.209C173.521 31.3859 173.224 30.3439 173.224 29.0829C173.224 27.8045 173.521 26.4822 174.117 25.1162ZM192.509 20.4139C193.104 20.4139 193.665 20.7467 194.19 21.4122C194.716 22.0601 194.978 22.6293 194.978 23.1197C194.978 23.4174 194.838 23.5663 194.558 23.5663C194.365 23.5663 194.068 23.4174 193.665 23.1197C193.262 22.8045 192.85 22.6468 192.43 22.6468C192.01 22.6468 191.344 22.892 190.434 23.3824C189.54 23.8728 189.094 24.3894 189.094 24.9323C189.094 25.3351 189.899 26.0269 191.511 27.0076C192.124 27.3929 192.675 27.892 193.166 28.505C193.673 29.1004 193.927 29.7484 193.927 30.449C193.927 31.132 193.446 31.8062 192.483 32.4717C191.537 33.1197 190.425 33.4437 189.146 33.4437C187.885 33.4437 186.765 33.1372 185.784 32.5243C184.821 31.9113 184.339 31.3334 184.339 30.7905C184.339 30.5628 184.392 30.3877 184.497 30.2651C184.619 30.125 184.768 30.0549 184.943 30.0549C185.118 30.0549 185.363 30.1688 185.679 30.3964C186.624 31.0794 187.605 31.4209 188.621 31.4209C189.654 31.4209 190.399 31.3071 190.854 31.0794C191.309 30.8343 191.537 30.519 191.537 30.1337C191.537 29.7309 191.283 29.3106 190.775 28.8728C190.267 28.4174 189.707 28.0146 189.094 27.6644C188.498 27.3141 187.947 26.885 187.439 26.3771C186.931 25.8693 186.677 25.3526 186.677 24.8272C186.677 23.899 187.404 22.9358 188.857 21.9376C190.328 20.9218 191.546 20.4139 192.509 20.4139ZM199.543 16.6836C199.543 16.3333 199.684 16.0006 199.964 15.6853C200.244 15.3701 200.524 15.2125 200.804 15.2125C201.102 15.2125 201.452 15.5715 201.855 16.2895C202.258 16.9901 202.459 17.5768 202.459 18.0496C202.459 18.2248 202.381 18.3824 202.223 18.5225C202.065 18.6626 201.899 18.7326 201.724 18.7326C201.304 18.7326 200.831 18.4787 200.305 17.9708C199.797 17.4629 199.543 17.0339 199.543 16.6836ZM199.412 20.4139C199.745 20.4139 200.06 20.6153 200.358 21.0181C200.656 21.4209 200.804 21.815 200.804 22.2002C200.804 22.5855 200.55 23.7414 200.043 25.6679C199.535 27.5768 198.895 29.7222 198.125 32.104C197.827 32.9796 197.451 33.4175 196.995 33.4175C196.75 33.4175 196.54 33.3211 196.365 33.1285C196.19 32.9183 196.102 32.6907 196.102 32.4455C196.102 32.1828 196.163 31.78 196.286 31.2371C196.426 30.6766 196.619 29.9411 196.864 29.0304C197.127 28.1022 197.328 27.3491 197.468 26.7712C197.626 26.1933 197.783 25.5453 197.941 24.8272C198.099 24.0917 198.221 23.505 198.309 23.0672C198.414 22.6118 198.528 22.1565 198.65 21.7011C198.895 20.843 199.149 20.4139 199.412 20.4139ZM205.383 30.8167C205.383 31.1495 205.575 31.3159 205.961 31.3159C206.626 31.3159 207.432 31.132 208.377 30.7642C209.341 30.3789 209.875 30.1863 209.98 30.1863C210.295 30.1863 210.453 30.3526 210.453 30.6854C210.453 31.1933 209.927 31.78 208.877 32.4455C207.843 33.111 206.898 33.4437 206.039 33.4437C205.199 33.4437 204.498 33.2161 203.938 32.7607C203.377 32.2879 203.097 31.8062 203.097 31.3159C203.097 30.8255 203.202 30.2038 203.412 29.4507C203.623 28.6801 203.92 27.6731 204.306 26.4297C204.708 25.1687 205.024 24.1267 205.251 23.3036C204.428 23.4962 203.877 23.5925 203.596 23.5925C203.316 23.5925 203.036 23.4524 202.756 23.1722C202.493 22.8745 202.362 22.5943 202.362 22.3316C202.362 21.9113 203.5 21.5085 205.777 21.1232C206.092 19.6696 206.25 18.3824 206.25 17.2615C206.25 16.7361 206.425 16.4734 206.775 16.4734C207.073 16.4734 207.441 16.6661 207.878 17.0514C208.316 17.4191 208.535 17.8395 208.535 18.3123C208.535 18.7852 208.386 19.6171 208.088 20.8079C209.087 20.7204 209.884 20.6766 210.479 20.6766C211.53 20.6766 212.055 20.9043 212.055 21.3596C212.055 21.6223 211.766 21.8412 211.188 22.0164C210.628 22.1915 209.437 22.4629 207.616 22.8307C207.248 24.2143 206.784 25.7992 206.223 27.5856C205.663 29.3544 205.383 30.4315 205.383 30.8167ZM215.962 16.6836C215.962 16.3333 216.102 16.0006 216.382 15.6853C216.663 15.3701 216.943 15.2125 217.223 15.2125C217.521 15.2125 217.871 15.5715 218.274 16.2895C218.677 16.9901 218.878 17.5768 218.878 18.0496C218.878 18.2248 218.799 18.3824 218.642 18.5225C218.484 18.6626 218.318 18.7326 218.142 18.7326C217.722 18.7326 217.249 18.4787 216.724 17.9708C216.216 17.4629 215.962 17.0339 215.962 16.6836ZM215.831 20.4139C216.163 20.4139 216.479 20.6153 216.776 21.0181C217.074 21.4209 217.223 21.815 217.223 22.2002C217.223 22.5855 216.969 23.7414 216.461 25.6679C215.953 27.5768 215.314 29.7222 214.543 32.104C214.246 32.9796 213.869 33.4175 213.414 33.4175C213.169 33.4175 212.959 33.3211 212.783 33.1285C212.608 32.9183 212.521 32.6907 212.521 32.4455C212.521 32.1828 212.582 31.78 212.705 31.2371C212.845 30.6766 213.037 29.9411 213.283 29.0304C213.545 28.1022 213.747 27.3491 213.887 26.7712C214.044 26.1933 214.202 25.5453 214.36 24.8272C214.517 24.0917 214.64 23.505 214.727 23.0672C214.832 22.6118 214.946 22.1565 215.069 21.7011C215.314 20.843 215.568 20.4139 215.831 20.4139ZM226.793 24.8798C226.793 24.2843 226.696 23.7239 226.504 23.1985C226.311 22.6556 226.031 22.2615 225.663 22.0164C224.455 22.3491 223.413 23.2861 222.537 24.8272C221.679 26.3509 221.25 27.787 221.25 29.1355C221.25 30.484 221.582 31.3246 222.248 31.6574C223.509 31.4122 224.577 30.554 225.453 29.0829C226.346 27.5943 226.793 26.1933 226.793 24.8798ZM219.884 25.1162C220.497 23.7502 221.293 22.6293 222.274 21.7537C223.272 20.8605 224.288 20.4139 225.321 20.4139C226.372 20.4139 227.248 20.8605 227.948 21.7537C228.649 22.6293 228.999 23.7064 228.999 24.9848C228.999 26.2458 228.693 27.5418 228.08 28.8728C227.467 30.1863 226.617 31.2808 225.532 32.1565C224.463 33.0146 223.325 33.4437 222.117 33.4437C221.223 33.4437 220.479 33.0322 219.884 32.209C219.288 31.3859 218.99 30.3439 218.99 29.0829C218.99 27.8045 219.288 26.4822 219.884 25.1162ZM233.337 28.8728C235.018 26.0181 236.384 23.899 237.435 22.5155C238.503 21.1144 239.37 20.4139 240.036 20.4139C240.719 20.4139 241.358 20.7729 241.954 21.491C242.567 22.209 242.873 22.9708 242.873 23.7764C242.873 25.0374 242.584 26.5785 242.006 28.3999C240.955 31.7625 240.01 33.4437 239.169 33.4437C238.784 33.4437 238.591 33.181 238.591 32.6556C238.591 32.2879 238.775 31.5435 239.143 30.4227C239.528 29.2843 239.878 28.1722 240.193 27.0864C240.526 25.9831 240.693 25.16 240.693 24.6171C240.693 24.0566 240.605 23.6451 240.43 23.3824C240.272 23.1197 240.106 22.9883 239.931 22.9883C239.773 22.9883 239.607 23.0409 239.432 23.146C239.257 23.251 239.055 23.4262 238.827 23.6714C238.617 23.9165 238.416 24.1617 238.223 24.4069C238.031 24.6346 237.785 24.9673 237.488 25.4052C237.207 25.843 236.971 26.2195 236.778 26.5348C236.586 26.8325 236.306 27.2703 235.938 27.8483C235.57 28.4262 235.29 28.864 235.097 29.1617C234.904 29.4595 234.651 29.8623 234.335 30.3702C234.02 30.878 233.766 31.2721 233.573 31.5523C233.398 31.8325 233.197 32.139 232.969 32.4717C232.531 33.1197 232.181 33.4437 231.918 33.4437C231.673 33.4437 231.384 33.2511 231.052 32.8658C230.719 32.463 230.552 32.1127 230.552 31.815C230.552 31.7274 230.614 31.491 230.736 31.1057C231.069 30.0899 231.437 28.8378 231.84 27.3491C232.242 25.843 232.461 24.1355 232.496 22.2265C232.549 20.9481 232.733 20.3088 233.048 20.3088C233.433 20.3088 233.819 20.5102 234.204 20.913C234.589 21.3158 234.782 21.7624 234.782 22.2528C234.782 22.7256 234.633 23.6538 234.335 25.0374C234.055 26.4034 233.722 27.6819 233.337 28.8728Z" fill="white"/>
<g clip-path="url(#clip0_224_104)">
<path d="M0.693728 8.43938C4.42453 6.82182 8.15533 5.20426 11.8841 3.58689C12.5129 3.31563 13.4106 3.42761 14.0431 3.62339C14.3154 3.70777 14.5871 3.80867 14.8325 3.95521C15.097 4.11031 15.2392 4.26416 15.2901 4.55602C15.29 4.55398 15.2898 4.55193 15.2896 4.54989C15.2898 4.55193 15.2901 4.55602 15.2903 4.55806C15.2903 4.55806 15.2907 4.56214 15.2909 4.56419C15.2914 4.57031 15.292 4.57644 15.2926 4.58256C15.8337 7.80503 16.725 10.9607 17.9483 13.9853C18.1914 14.5541 18.4344 15.1229 18.6774 15.6918C18.7858 15.9434 18.602 16.1166 18.3954 16.2177C18.0698 16.3749 17.5718 16.3831 17.2252 16.3549C16.7452 16.3141 16.2449 16.2298 15.8033 16.0291C15.5251 15.902 15.1565 15.744 15.0215 15.4454C14.7721 14.8956 14.5364 14.3406 14.3105 13.7805C13.5452 11.9887 12.78 10.199 12.0147 8.40731C11.9777 8.47038 11.9405 8.53141 11.9037 8.59653C10.1579 11.8538 9.35318 15.5877 9.4368 19.2862C9.46231 20.4183 9.57519 21.5487 9.75212 22.6671C10.4787 26.9227 12.2091 30.9575 14.5261 34.5704C15.0716 35.4206 15.6535 36.2469 16.264 37.052C17.8758 39.1313 19.6982 41.0411 21.7174 42.721C21.9705 42.9306 22.2255 43.1381 22.4842 43.3411C22.6091 43.4388 22.7338 43.5346 22.8585 43.6303C22.9219 43.6781 22.9832 43.726 23.0466 43.7738C23.051 43.7775 23.053 43.7773 23.0554 43.7812C23.0576 43.7831 23.0598 43.7849 23.0643 43.7887C23.6048 44.1822 24.1546 44.5646 24.7168 44.9274C25.2682 45.2829 25.828 45.6191 26.4006 45.9398C26.6858 46.0992 26.9747 46.2541 27.2632 46.405C27.3209 46.4347 27.3785 46.4645 27.4362 46.4942C27.5875 46.569 27.7366 46.642 27.8878 46.7147C28.4791 46.9945 29.0788 47.255 29.687 47.4963C29.9826 47.6135 30.2797 47.7245 30.5784 47.8312C30.6163 47.8442 30.6561 47.8571 30.6939 47.8701C30.8619 47.9269 31.0318 47.9815 31.2016 48.036C31.5496 48.1465 31.9008 48.2484 32.2535 48.344C32.4163 48.3889 32.5788 48.4298 32.7435 48.4724C32.8102 48.489 32.8768 48.5056 32.9435 48.5222C33.606 48.6679 34.271 48.7949 34.9436 48.8943C35.0861 48.9164 35.2302 48.9342 35.3725 48.9542C35.4404 48.9625 35.5061 48.9688 35.574 48.9771C35.9379 49.0161 36.303 49.0467 36.6676 49.0713C37.0178 49.095 37.3693 49.1104 37.7203 49.1197C37.7836 49.1222 37.8467 49.1227 37.9099 49.1231C38.0727 49.1227 38.2377 49.1242 38.4003 49.1218C39.116 49.1123 39.8311 49.0741 40.5456 49.0072C40.7031 48.9929 40.8582 48.9746 41.0154 48.9583C41.1039 48.9461 41.1905 48.9362 41.279 48.9241C41.6268 48.876 41.972 48.822 42.3167 48.7618C43.0058 48.6395 43.6883 48.489 44.3663 48.3121C44.5412 48.2653 44.7181 48.2183 44.8926 48.1675C44.962 48.1468 45.0332 48.1238 45.1027 48.1052C45.1284 48.0966 45.1543 48.0902 45.178 48.0819C45.5104 47.9775 45.8422 47.865 46.1714 47.7466C47.4998 47.2676 48.7852 46.6732 50.0094 45.9649C50.2956 45.7989 50.5772 45.6271 50.8562 45.4494C50.8716 45.4397 50.8868 45.4281 50.9042 45.4182C51.5747 44.9785 52.5453 45.0859 53.2806 45.3156C53.6366 45.4253 54.0802 45.5579 54.3362 45.8435C54.4608 45.9825 54.6687 46.2766 54.4285 46.4343C52.1156 47.9518 49.6139 49.0501 46.949 49.7637C44.2306 50.4924 41.4107 50.7548 38.6019 50.6909C33.0884 50.5659 27.6278 48.9167 22.8785 46.0909C18.564 43.5243 14.8647 39.9999 11.9362 35.9072C8.7092 31.397 6.40434 26.1255 5.83379 20.5627C5.38497 16.183 6.16124 11.6652 8.25367 7.81016C6.7633 8.45618 5.27494 9.10202 3.78456 9.74804C3.43394 9.89932 2.98498 9.90923 2.61436 9.88525C2.1516 9.85523 1.61718 9.75349 1.19243 9.55942C0.937728 9.44461 0.502536 9.27003 0.410659 8.97571C0.332955 8.72541 0.453752 8.55383 0.692638 8.44977L0.693728 8.43938ZM40.9138 48.9593C40.8815 48.9622 40.8593 48.9643 40.8653 48.9637C40.8815 48.9622 40.8976 48.9608 40.9138 48.9593Z" fill="white"/>
</g>
<defs>
<clipPath id="clip0_224_104">
<rect width="50.5488" height="49.6297" fill="white" transform="matrix(-0.995898 0.0904839 0.0904839 0.995898 50.3418 0)"/>
</clipPath>
</defs>
</svg>
