<svg width="154" height="117" viewBox="0 0 154 117" fill="none" xmlns="http://www.w3.org/2000/svg">
<path d="M4.79603 18.3799H4.74734C4.71488 18.5422 4.55258 19.1914 4.26043 20.3275C3.98452 21.4637 3.80599 22.2102 3.72483 22.5673C3.64368 22.9081 3.57065 23.1841 3.50573 23.3951C3.45704 23.606 3.40023 23.8495 3.33531 24.1254C3.27039 24.3851 3.20547 24.5961 3.14055 24.7584C3.09186 24.9045 3.04317 25.0505 2.99447 25.1966C2.89709 25.4725 2.79971 25.6105 2.70233 25.6105C2.49134 25.6105 2.21542 25.3833 1.87459 24.9288C1.53376 24.4581 1.36334 24.0767 1.36334 23.7846C1.36334 23.4924 1.8259 21.4637 2.75102 17.6982C3.69237 13.9328 4.17928 11.4253 4.21174 10.1755C4.21174 9.93209 4.26855 9.73732 4.38216 9.59125C4.54446 9.25042 5.02325 9.00696 5.81853 8.86089C6.63004 8.71482 7.80673 8.64178 9.3486 8.64178C10.9067 8.64178 12.124 8.72293 13.0004 8.88524C13.8931 9.04754 14.3394 9.27476 14.3394 9.56691C14.3394 9.76167 14.2014 9.89962 13.9255 9.98078C13.6496 10.0619 13.4062 10.1268 13.1952 10.1755C12.9842 10.208 12.7083 10.2486 12.3674 10.2973C12.0266 10.3297 11.7101 10.3622 11.418 10.3946C11.1258 10.4109 10.7444 10.4433 10.2737 10.492C9.81928 10.5407 9.3973 10.5894 9.00777 10.6381C8.61824 10.6706 8.09076 10.7274 7.42532 10.8085C6.75988 10.8897 6.32978 10.9384 6.13502 10.9546C6.15125 11.0033 6.15937 11.0763 6.15937 11.1737C6.15937 11.9365 5.84288 13.6894 5.2099 16.4323C6.21617 16.481 7.29548 16.4566 8.44783 16.3593C9.6164 16.2619 10.3305 16.2132 10.5902 16.2132C11.207 16.2132 11.5153 16.343 11.5153 16.6027C11.5153 17.1058 10.8093 17.5278 9.3973 17.8687C8.0015 18.2095 6.46774 18.3799 4.79603 18.3799ZM14.9587 16.5297L14.8856 14.7038C14.8856 13.9409 15.0642 13.5595 15.4212 13.5595C15.7296 13.5595 16.0218 13.7624 16.2977 14.1682C16.5898 14.5577 16.7359 15.0284 16.7359 15.5802C16.7359 16.1158 16.7197 16.5216 16.6872 16.7975C18.0992 14.6551 19.4382 13.5839 20.7042 13.5839C21.4995 13.5839 21.8971 13.7786 21.8971 14.1682C21.8971 14.3629 21.8078 14.5415 21.6293 14.7038C21.4508 14.8661 21.1667 15.0527 20.7772 15.2637C19.917 15.637 19.1867 16.2132 18.5861 16.9922C18.0018 17.7551 17.5231 18.6234 17.1498 19.5972C16.7765 20.571 16.4762 21.3906 16.249 22.0561C16.038 22.7215 15.8757 23.2409 15.7621 23.6142C15.6485 23.9875 15.5186 24.3526 15.3726 24.7097C15.1129 25.3589 14.8126 25.6835 14.4718 25.6835C14.1959 25.6835 13.9686 25.5293 13.7901 25.2209C13.6278 24.8963 13.5467 24.588 13.5467 24.2958C13.5467 23.9875 13.6846 23.3869 13.9605 22.4943C14.626 20.4493 14.9587 18.4611 14.9587 16.5297ZM30.1515 14.2412C30.2164 13.9815 30.2813 13.803 30.3463 13.7056C30.4112 13.6082 30.5491 13.5595 30.7601 13.5595C30.9873 13.5595 31.2551 13.7705 31.5635 14.1925C31.8881 14.6145 32.0504 15.0203 32.0504 15.4098C32.0504 15.6208 31.6934 16.8705 30.9792 19.159C30.2651 21.4474 29.7133 23.2652 29.3238 24.6123C29.129 25.294 28.8531 25.6348 28.496 25.6348C28.285 25.6348 28.1065 25.5456 27.9604 25.367C27.8143 25.1885 27.7413 24.8639 27.7413 24.3932C27.7413 23.9225 27.928 23.0704 28.3012 21.8369C27.6196 22.9406 26.8811 23.8495 26.0858 24.5636C25.2905 25.2778 24.5602 25.6348 23.8947 25.6348C23.2455 25.6348 22.6288 25.3264 22.0445 24.7097C21.4602 24.0929 21.1681 23.46 21.1681 22.8108C21.1681 21.2689 21.6144 19.3456 22.5071 17.0409C23.416 14.72 24.1707 13.5595 24.7712 13.5595C25.0471 13.5595 25.2905 13.6975 25.5015 13.9734C25.7288 14.2331 25.8424 14.4847 25.8424 14.7281C25.8424 14.9716 25.6233 15.5477 25.185 16.4566C23.8866 19.1833 23.2374 21.2932 23.2374 22.7864C23.2374 23.0461 23.3186 23.2652 23.4809 23.4437C23.6432 23.606 23.8379 23.6872 24.0652 23.6872C24.6819 23.6872 25.4123 23.1435 26.2562 22.0561C27.1164 20.9686 27.8955 19.7027 28.5934 18.2582C29.2913 16.8137 29.8107 15.4747 30.1515 14.2412ZM27.2787 11.9041C26.9055 11.9041 26.4997 11.6931 26.0615 11.2711C25.6395 10.8491 25.4285 10.4839 25.4285 10.1755C25.4285 9.85093 25.5421 9.55068 25.7693 9.27476C25.9966 8.99885 26.24 8.86089 26.4997 8.86089C26.7594 8.86089 27.0596 9.17738 27.4005 9.81036C27.7413 10.4433 27.9117 10.8816 27.9117 11.125C27.9117 11.3685 27.8387 11.5632 27.6926 11.7093C27.5628 11.8391 27.4248 11.9041 27.2787 11.9041ZM30.9305 11.9041C30.5735 11.9041 30.1758 11.6931 29.7376 11.2711C29.2994 10.8491 29.0803 10.4839 29.0803 10.1755C29.0803 9.86716 29.1939 9.57502 29.4211 9.29911C29.6646 9.00696 29.9162 8.86089 30.1758 8.86089C30.4355 8.86089 30.7358 9.17738 31.0766 9.81036C31.4175 10.4433 31.5879 10.8816 31.5879 11.125C31.5879 11.3685 31.5148 11.5632 31.3688 11.7093C31.2389 11.8391 31.0928 11.9041 30.9305 11.9041ZM36.08 7.69232C36.08 7.05934 36.2747 6.74285 36.6642 6.74285C36.9726 6.74285 37.2972 6.9863 37.6381 7.47321C37.9951 7.96011 38.1737 8.43079 38.1737 8.88524C38.1737 9.9402 37.9059 11.7418 37.3703 14.2899C36.8509 16.8218 36.1692 19.3537 35.3253 21.8856C36.9483 18.948 38.3035 16.8299 39.3909 15.5315C40.4946 14.2169 41.4359 13.5595 42.215 13.5595C42.637 13.5595 43.1239 13.9247 43.6757 14.6551C44.2438 15.3854 44.5278 16.1158 44.5278 16.8462C44.5278 17.5765 44.3249 18.6721 43.9192 20.1328C42.9129 23.8008 41.9634 25.6348 41.0708 25.6348C40.7137 25.6348 40.5352 25.3914 40.5352 24.9045C40.5352 24.4176 40.7299 23.5979 41.1194 22.4456C41.9796 19.9299 42.4097 18.2338 42.4097 17.3574C42.4097 17.0653 42.3367 16.8218 42.1906 16.627C42.0446 16.4323 41.866 16.3349 41.655 16.3349C41.444 16.3349 41.1844 16.4485 40.876 16.6757C40.5676 16.903 40.1943 17.3006 39.7561 17.8687C39.2043 18.599 38.6281 19.4186 38.0276 20.3275C37.4433 21.2364 37.0862 21.7883 36.9564 21.983C36.8428 22.1616 36.6318 22.4943 36.3234 22.9812C36.0313 23.4681 35.8122 23.8333 35.6661 24.0767C35.52 24.3039 35.3415 24.5555 35.1305 24.8314C34.7572 25.367 34.4732 25.6348 34.2784 25.6348C34.0836 25.6348 33.824 25.4563 33.4994 25.0992C33.1748 24.7259 33.0124 24.4176 33.0124 24.1741C33.0124 23.9144 33.1017 23.4356 33.2802 22.7377C34.0918 19.6215 34.603 17.4873 34.814 16.3349C35.658 12.1151 36.08 9.23419 36.08 7.69232ZM55.9733 17.6009C55.9733 18.4611 55.5026 19.1671 54.5613 19.7189C53.6362 20.2545 52.5812 20.5223 51.3964 20.5223C50.2278 20.5223 49.1647 20.3925 48.2072 20.1328C47.9799 20.8469 47.8663 21.488 47.8663 22.0561C47.8663 22.6079 48.0367 23.038 48.3776 23.3464C48.7346 23.6547 49.3108 23.8089 50.1061 23.8089C50.9176 23.8089 51.7454 23.671 52.5893 23.3951C53.4495 23.1029 53.9202 22.9568 54.0014 22.9568C54.4233 22.9568 54.6343 23.1191 54.6343 23.4437C54.6343 23.882 54.1393 24.3607 53.1493 24.8801C52.1592 25.3833 51.1935 25.6348 50.2522 25.6348C48.9862 25.6348 47.9556 25.2615 47.1603 24.5149C46.365 23.7521 45.9674 22.7945 45.9674 21.6422C45.9674 20.4898 46.2758 19.2888 46.8925 18.0391C47.5093 16.7731 48.3045 15.71 49.2784 14.8498C50.2522 13.9896 51.2179 13.5595 52.1755 13.5595C53.133 13.5595 54.0014 14.014 54.7804 14.9229C55.5757 15.8318 55.9733 16.7244 55.9733 17.6009ZM52.2972 15.4828C51.6967 15.4828 51.0718 15.7993 50.4226 16.4323C49.7734 17.049 49.2216 17.82 48.7671 18.7451C49.4163 18.8912 50.1548 18.9642 50.9825 18.9642C51.8103 18.9642 52.5325 18.8344 53.1493 18.5747C53.766 18.2988 54.0744 17.9417 54.0744 17.5035C54.0744 17.0653 53.8715 16.6189 53.4658 16.1645C53.0762 15.71 52.6867 15.4828 52.2972 15.4828ZM58.6804 16.5297L58.6074 14.7038C58.6074 13.9409 58.7859 13.5595 59.143 13.5595C59.4513 13.5595 59.7435 13.7624 60.0194 14.1682C60.3115 14.5577 60.4576 15.0284 60.4576 15.5802C60.4576 16.1158 60.4414 16.5216 60.4089 16.7975C61.821 14.6551 63.1599 13.5839 64.4259 13.5839C65.2212 13.5839 65.6188 13.7786 65.6188 14.1682C65.6188 14.3629 65.5296 14.5415 65.351 14.7038C65.1725 14.8661 64.8885 15.0527 64.4989 15.2637C63.6387 15.637 62.9084 16.2132 62.3079 16.9922C61.7236 17.7551 61.2448 18.6234 60.8715 19.5972C60.4982 20.571 60.1979 21.3906 59.9707 22.0561C59.7597 22.7215 59.5974 23.2409 59.4838 23.6142C59.3702 23.9875 59.2404 24.3526 59.0943 24.7097C58.8346 25.3589 58.5343 25.6835 58.1935 25.6835C57.9176 25.6835 57.6904 25.5293 57.5118 25.2209C57.3495 24.8963 57.2684 24.588 57.2684 24.2958C57.2684 23.9875 57.4063 23.3869 57.6823 22.4943C58.3477 20.4493 58.6804 18.4611 58.6804 16.5297ZM74.9931 17.6009C74.9931 18.4611 74.5224 19.1671 73.5811 19.7189C72.656 20.2545 71.601 20.5223 70.4162 20.5223C69.2476 20.5223 68.1845 20.3925 67.227 20.1328C66.9997 20.8469 66.8861 21.488 66.8861 22.0561C66.8861 22.6079 67.0565 23.038 67.3974 23.3464C67.7544 23.6547 68.3306 23.8089 69.1259 23.8089C69.9374 23.8089 70.7651 23.671 71.6091 23.3951C72.4693 23.1029 72.94 22.9568 73.0211 22.9568C73.4431 22.9568 73.6541 23.1191 73.6541 23.4437C73.6541 23.882 73.1591 24.3607 72.1691 24.8801C71.179 25.3833 70.2133 25.6348 69.272 25.6348C68.006 25.6348 66.9754 25.2615 66.1801 24.5149C65.3848 23.7521 64.9872 22.7945 64.9872 21.6422C64.9872 20.4898 65.2956 19.2888 65.9123 18.0391C66.5291 16.7731 67.3243 15.71 68.2981 14.8498C69.272 13.9896 70.2377 13.5595 71.1952 13.5595C72.1528 13.5595 73.0211 14.014 73.8002 14.9229C74.5955 15.8318 74.9931 16.7244 74.9931 17.6009ZM71.317 15.4828C70.7164 15.4828 70.0916 15.7993 69.4424 16.4323C68.7932 17.049 68.2413 17.82 67.7869 18.7451C68.4361 18.8912 69.1746 18.9642 70.0023 18.9642C70.8301 18.9642 71.5523 18.8344 72.1691 18.5747C72.7858 18.2988 73.0942 17.9417 73.0942 17.5035C73.0942 17.0653 72.8913 16.6189 72.4855 16.1645C72.096 15.71 71.7065 15.4828 71.317 15.4828ZM90.32 17.893C89.4436 20.6684 89.0054 22.3482 89.0054 22.9325C89.0054 23.1273 89.0622 23.2896 89.1758 23.4194C89.3056 23.533 89.4679 23.5898 89.6627 23.5898C91.5292 23.5898 93.5904 23.2896 95.8464 22.689C96.5768 22.4943 96.9987 22.3969 97.1124 22.3969C97.3558 22.3969 97.4775 22.5673 97.4775 22.9081C97.4775 23.4924 96.5768 24.0929 94.7752 24.7097C92.9899 25.3264 91.2614 25.6348 89.5896 25.6348C88.8431 25.6348 88.1857 25.4157 87.6177 24.9775C87.0658 24.5393 86.7899 23.9875 86.7899 23.322C86.7899 22.6566 87.0253 21.5205 87.4959 19.9137C87.9829 18.3069 88.4698 16.5946 88.9567 14.7768C89.4436 12.959 89.687 11.4253 89.687 10.1755C89.687 9.99701 89.7195 9.81036 89.7844 9.6156C90.0603 9.01508 91.8294 8.71482 95.0917 8.71482C98.354 8.71482 99.9851 8.95016 99.9851 9.42083C99.9851 9.74544 99.6362 9.96455 98.9383 10.0782C98.354 10.1918 97.5749 10.2973 96.6011 10.3946C95.6435 10.4758 94.97 10.5407 94.5804 10.5894C94.1909 10.6219 93.2496 10.7679 91.7564 11.0276V11.1007C91.7564 12.2043 91.4561 13.8679 90.8556 16.0915C90.953 16.1077 91.2776 16.1158 91.8294 16.1158C92.3975 16.1158 93.1522 16.0752 94.0935 15.9941C95.0349 15.9129 95.7409 15.8723 96.2116 15.8723C96.6985 15.8723 96.9419 15.986 96.9419 16.2132C96.9419 16.7812 96.2765 17.2032 94.9456 17.4791C93.6147 17.7551 92.0729 17.893 90.32 17.893ZM108.651 13.5595C108.927 13.5595 109.195 13.665 109.454 13.876C109.714 14.0708 109.844 14.2899 109.844 14.5334C109.844 14.9716 109.252 16.4891 108.067 19.0859C106.898 21.6828 106.062 23.4356 105.559 24.3445C105.072 25.2372 104.642 25.6835 104.269 25.6835C104.058 25.6835 103.798 25.5293 103.49 25.2209C103.182 24.9126 102.954 24.5799 102.808 24.2228C102.37 23.2003 101.899 21.5529 101.396 19.2807C100.893 17.0085 100.641 15.3449 100.641 14.2899C100.641 13.803 100.788 13.5595 101.08 13.5595C101.437 13.5595 101.802 13.7137 102.175 14.0221C102.549 14.3142 102.808 14.6875 102.954 15.142C103.003 15.4017 103.068 16.0509 103.149 17.0896C103.376 19.654 103.766 21.626 104.318 23.0055C104.756 22.0642 105.316 20.7333 105.997 19.0129C106.679 17.2763 107.231 15.9373 107.653 14.9959C108.091 14.0383 108.424 13.5595 108.651 13.5595ZM120.236 17.6009C120.236 18.4611 119.766 19.1671 118.824 19.7189C117.899 20.2545 116.844 20.5223 115.659 20.5223C114.491 20.5223 113.428 20.3925 112.47 20.1328C112.243 20.8469 112.129 21.488 112.129 22.0561C112.129 22.6079 112.3 23.038 112.641 23.3464C112.998 23.6547 113.574 23.8089 114.369 23.8089C115.181 23.8089 116.008 23.671 116.852 23.3951C117.713 23.1029 118.183 22.9568 118.264 22.9568C118.686 22.9568 118.897 23.1191 118.897 23.4437C118.897 23.882 118.402 24.3607 117.412 24.8801C116.422 25.3833 115.457 25.6348 114.515 25.6348C113.249 25.6348 112.219 25.2615 111.423 24.5149C110.628 23.7521 110.23 22.7945 110.23 21.6422C110.23 20.4898 110.539 19.2888 111.156 18.0391C111.772 16.7731 112.568 15.71 113.541 14.8498C114.515 13.9896 115.481 13.5595 116.439 13.5595C117.396 13.5595 118.264 14.014 119.043 14.9229C119.839 15.8318 120.236 16.7244 120.236 17.6009ZM116.56 15.4828C115.96 15.4828 115.335 15.7993 114.686 16.4323C114.036 17.049 113.485 17.82 113.03 18.7451C113.679 18.8912 114.418 18.9642 115.246 18.9642C116.073 18.9642 116.796 18.8344 117.412 18.5747C118.029 18.2988 118.337 17.9417 118.337 17.5035C118.337 17.0653 118.135 16.6189 117.729 16.1645C117.339 15.71 116.95 15.4828 116.56 15.4828ZM123.869 21.3987C125.427 18.7532 126.693 16.7894 127.666 15.5072C128.657 14.2087 129.46 13.5595 130.077 13.5595C130.71 13.5595 131.302 13.8923 131.854 14.5577C132.422 15.2231 132.706 15.9292 132.706 16.6757C132.706 17.8443 132.438 19.2726 131.903 20.9605C130.929 24.0767 130.052 25.6348 129.273 25.6348C128.916 25.6348 128.738 25.3914 128.738 24.9045C128.738 24.5636 128.908 23.8738 129.249 22.8351C129.606 21.7801 129.931 20.7495 130.223 19.7433C130.531 18.7207 130.685 17.9579 130.685 17.4548C130.685 16.9354 130.604 16.554 130.442 16.3106C130.296 16.0671 130.142 15.9454 129.979 15.9454C129.833 15.9454 129.679 15.9941 129.517 16.0915C129.354 16.1888 129.168 16.3511 128.957 16.5784C128.762 16.8056 128.575 17.0328 128.397 17.26C128.218 17.471 127.991 17.7794 127.715 18.1852C127.456 18.5909 127.236 18.9399 127.058 19.232C126.879 19.5079 126.62 19.9137 126.279 20.4493C125.938 20.9849 125.678 21.3906 125.5 21.6665C125.321 21.9424 125.086 22.3157 124.794 22.7864C124.502 23.2571 124.266 23.6223 124.088 23.882C123.925 24.1416 123.739 24.4257 123.528 24.734C123.122 25.3346 122.797 25.6348 122.554 25.6348C122.327 25.6348 122.059 25.4563 121.751 25.0992C121.442 24.7259 121.288 24.4013 121.288 24.1254C121.288 24.0443 121.345 23.8252 121.458 23.4681C121.767 22.5267 122.108 21.3663 122.481 19.9867C122.854 18.5909 123.057 17.0085 123.09 15.2394C123.138 14.0546 123.309 13.4622 123.601 13.4622C123.958 13.4622 124.315 13.6488 124.672 14.0221C125.029 14.3954 125.208 14.8093 125.208 15.2637C125.208 15.7019 125.07 16.5621 124.794 17.8443C124.534 19.1103 124.226 20.2951 123.869 21.3987ZM137.19 23.2003C137.19 23.5087 137.369 23.6628 137.726 23.6628C138.343 23.6628 139.089 23.4924 139.966 23.1516C140.858 22.7945 141.354 22.616 141.451 22.616C141.743 22.616 141.889 22.7702 141.889 23.0786C141.889 23.5492 141.402 24.0929 140.428 24.7097C139.471 25.3264 138.594 25.6348 137.799 25.6348C137.02 25.6348 136.371 25.4238 135.851 25.0018C135.332 24.5636 135.072 24.1173 135.072 23.6628C135.072 23.2084 135.17 22.6322 135.365 21.9343C135.559 21.2202 135.835 20.287 136.192 19.1346C136.566 17.966 136.858 17.0003 137.069 16.2375C136.306 16.4161 135.795 16.5053 135.535 16.5053C135.275 16.5053 135.016 16.3755 134.756 16.1158C134.512 15.8399 134.391 15.5802 134.391 15.3367C134.391 14.9472 135.446 14.5739 137.556 14.2169C137.848 12.8698 137.994 11.6768 137.994 10.6381C137.994 10.1512 138.156 9.90774 138.481 9.90774C138.757 9.90774 139.098 10.0863 139.503 10.4433C139.909 10.7842 140.112 11.1737 140.112 11.6119C140.112 12.0501 139.974 12.8211 139.698 13.9247C140.623 13.8436 141.362 13.803 141.913 13.803C142.887 13.803 143.374 14.014 143.374 14.436C143.374 14.6794 143.106 14.8823 142.571 15.0446C142.051 15.2069 140.948 15.4585 139.26 15.7993C138.919 17.0815 138.489 18.5503 137.97 20.2058C137.45 21.8451 137.19 22.8432 137.19 23.2003ZM150.841 13.5595C151.393 13.5595 151.913 13.8679 152.399 14.4847C152.886 15.0852 153.13 15.6127 153.13 16.0671C153.13 16.343 153 16.481 152.74 16.481C152.562 16.481 152.286 16.343 151.913 16.0671C151.539 15.775 151.158 15.6289 150.768 15.6289C150.379 15.6289 149.762 15.8561 148.918 16.3106C148.09 16.765 147.676 17.2438 147.676 17.7469C147.676 18.1202 148.423 18.7613 149.916 19.6702C150.484 20.0273 150.996 20.4898 151.45 21.0579C151.921 21.6097 152.156 22.2102 152.156 22.8595C152.156 23.4924 151.71 24.1173 150.817 24.734C149.941 25.3346 148.91 25.6348 147.725 25.6348C146.557 25.6348 145.518 25.3508 144.609 24.7827C143.716 24.2147 143.27 23.6791 143.27 23.1759C143.27 22.9649 143.319 22.8026 143.416 22.689C143.53 22.5592 143.668 22.4943 143.83 22.4943C143.992 22.4943 144.219 22.5998 144.512 22.8108C145.388 23.4437 146.297 23.7602 147.238 23.7602C148.196 23.7602 148.886 23.6547 149.308 23.4437C149.73 23.2165 149.941 22.9244 149.941 22.5673C149.941 22.194 149.705 21.8045 149.235 21.3987C148.764 20.9767 148.245 20.6035 147.676 20.2788C147.125 19.9542 146.613 19.5566 146.143 19.0859C145.672 18.6153 145.437 18.1365 145.437 17.6496C145.437 16.7894 146.11 15.8967 147.457 14.9716C148.821 14.0302 149.949 13.5595 150.841 13.5595Z" fill="white"/>
<g clip-path="url(#clip0_514_204)">
<path d="M58.8128 114.148C56.0877 111.003 53.3626 107.858 50.6383 104.714C50.1804 104.184 50.014 103.273 50.0108 102.596C50.0095 102.304 50.0245 102.008 50.0922 101.723C50.1624 101.417 50.2689 101.231 50.5381 101.092C50.5362 101.093 50.5343 101.093 50.5323 101.094C50.5343 101.093 50.5381 101.092 50.5401 101.091C50.5401 101.091 50.5439 101.089 50.5459 101.088C50.5517 101.086 50.5575 101.084 50.5633 101.081C53.5428 99.5631 56.3496 97.7237 58.9263 95.6003C59.407 95.1883 59.8876 94.7764 60.3682 94.3644C60.5806 94.1813 60.8061 94.3075 60.9683 94.4781C61.2218 94.7477 61.3828 95.2313 61.4617 95.5783C61.5693 96.0594 61.6407 96.5737 61.5804 97.0665C61.5418 97.3771 61.5008 97.7854 61.2507 98.0089C60.7907 98.4213 60.3213 98.8219 59.8439 99.2145C58.3299 100.512 56.8179 101.809 55.3039 103.106C55.3768 103.123 55.4478 103.14 55.5227 103.156C59.2387 103.86 63.1309 103.499 66.7156 102.281C67.813 101.908 68.8818 101.451 69.9192 100.935C73.8504 98.918 77.2575 95.9893 80.0727 92.6177C80.7351 91.8241 81.3629 91.0022 81.9614 90.1588C83.496 87.9467 84.8006 85.5811 85.8202 83.0939C85.9471 82.7824 86.0712 82.4697 86.1899 82.1549C86.247 82.0029 86.3022 81.8518 86.3573 81.7006C86.3845 81.6241 86.4124 81.5495 86.4396 81.4729C86.4419 81.4675 86.4411 81.4655 86.4442 81.462C86.4453 81.4593 86.4464 81.4566 86.4487 81.4511C86.6668 80.8025 86.8713 80.1484 87.0527 79.4881C87.2304 78.8407 87.3866 78.1909 87.5237 77.5334C87.5917 77.2061 87.6542 76.8765 87.7129 76.5485C87.7242 76.483 87.7356 76.4176 87.7469 76.3522C87.7734 76.1815 87.7988 76.0135 87.8234 75.8436C87.9149 75.1804 87.985 74.515 88.0337 73.8472C88.0573 73.5226 88.0744 73.1985 88.0868 72.874C88.0879 72.8331 88.0882 72.7903 88.0893 72.7493C88.0931 72.5679 88.0942 72.3853 88.0953 72.2028C88.0963 71.8292 88.0879 71.455 88.0729 71.0813C88.0667 70.9086 88.0566 70.7374 88.0477 70.5635C88.0434 70.4934 88.0391 70.4232 88.0349 70.3531C87.9736 69.6615 87.8932 68.9734 87.7837 68.2862C87.7615 68.1403 87.7346 67.9942 87.7104 67.8492C87.6976 67.7803 87.6836 67.7142 87.6708 67.6454C87.5971 67.2782 87.5149 66.9124 87.4269 66.549C87.3425 66.1998 87.2495 65.8519 87.1508 65.5064C87.1338 65.4438 87.1148 65.382 87.0958 65.3203C87.0455 65.1615 86.9962 64.9999 86.9439 64.8419C86.7148 64.1462 86.4579 63.4598 86.173 62.7829C86.1107 62.6336 86.0453 62.4878 85.981 62.3393C85.942 62.2567 85.9057 62.1751 85.8666 62.0925C85.7129 61.7678 85.5541 61.4474 85.3895 61.1294C85.0584 60.4943 84.7018 59.8743 84.3208 59.2667C84.2214 59.1103 84.1213 58.9521 84.018 58.7973C83.9765 58.736 83.9322 58.6735 83.8926 58.6114C83.8764 58.5889 83.8622 58.5656 83.8468 58.5451C83.6428 58.2526 83.4311 57.9633 83.2143 57.6783C82.3387 56.5286 81.3635 55.4564 80.296 54.479C80.0461 54.2506 79.7919 54.0285 79.5327 53.8107C79.5186 53.7986 79.5025 53.7873 79.4876 53.7733C78.8523 53.2539 78.659 52.2735 78.6574 51.4851C78.6551 51.1038 78.6483 50.6301 78.8485 50.2925C78.9459 50.1282 79.1691 49.8349 79.3968 50.0208C81.5887 51.8126 83.4293 53.9173 84.9445 56.2995C86.491 58.7294 87.6133 61.4015 88.4137 64.1631C89.9854 69.5837 90.0528 75.421 88.7532 80.9252C87.573 85.9255 85.2689 90.6193 82.1732 94.7353C78.7616 99.2709 74.3237 103.14 69.0685 105.406C64.931 107.19 60.2822 107.82 55.8763 106.961C56.9647 108.218 58.0524 109.472 59.1409 110.728C59.3962 111.024 59.5438 111.46 59.6343 111.829C59.7471 112.29 59.8119 112.843 59.753 113.317C59.7191 113.601 59.6824 114.079 59.4233 114.259C59.2028 114.412 58.9982 114.347 58.8233 114.146L58.8128 114.148ZM86.0132 62.4382C86.026 62.4689 86.0348 62.4899 86.0324 62.4842C86.026 62.4689 86.0196 62.4535 86.0132 62.4382Z" fill="white"/>
</g>
<defs>
<clipPath id="clip0_514_204">
<rect width="51.7308" height="50.7903" fill="white" transform="matrix(0.385243 0.922815 0.922815 -0.385243 35.3232 68.2739)"/>
</clipPath>
</defs>
</svg>
