<svg width="94" height="101" viewBox="0 0 94 101" fill="none" xmlns="http://www.w3.org/2000/svg">
<path d="M7.98527 17.0166C9.46222 17.2113 10.6389 17.5765 11.5153 18.1121C12.3918 18.6477 12.83 19.3618 12.83 20.2545C12.83 21.1309 12.3106 21.9993 11.2719 22.8595C10.2494 23.7197 8.99965 24.3932 7.52271 24.8801C6.06199 25.367 4.57692 25.6105 3.06751 25.6105C1.57433 25.6105 0.827741 25.3346 0.827741 24.7827C0.827741 24.6367 1.30653 24.45 2.26412 24.2228C3.23793 23.9793 4.30101 23.7278 5.45335 23.4681C6.6057 23.1922 7.66066 22.7621 8.61824 22.1778C9.59206 21.5773 10.079 20.8875 10.079 20.1084C10.079 19.6864 9.78682 19.3456 9.20253 19.0859C8.61824 18.81 7.96904 18.6153 7.25491 18.5016C5.3722 18.2257 4.43085 17.9011 4.43085 17.5278C4.43085 17.398 4.45519 17.3006 4.50388 17.2357C4.63373 17.0085 5.0476 16.692 5.7455 16.2862C6.4434 15.8805 7.14941 15.4828 7.86354 15.0933C8.5939 14.7038 9.25934 14.1925 9.85986 13.5595C10.4604 12.9266 10.7606 12.2855 10.7606 11.6363C10.7606 10.8734 10.3468 10.492 9.51902 10.492C8.85358 10.492 8.00961 10.7598 6.98711 11.2954C5.9646 11.8148 5.38032 12.0745 5.23424 12.0745C5.1044 12.0745 4.85283 11.9041 4.47954 11.5632C4.10624 11.2062 3.9196 10.9384 3.9196 10.7598C3.9196 10.2729 4.57692 9.76978 5.89157 9.25042C7.22245 8.73105 8.39914 8.47137 9.42164 8.47137C10.4441 8.47137 11.3043 8.82032 12.0022 9.51821C12.7164 10.2161 13.0734 11.0195 13.0734 11.9284C13.0734 12.8211 12.5622 13.7381 11.5397 14.6794C10.5172 15.6045 9.33237 16.3836 7.98527 17.0166ZM17.5844 8.44702C19.11 8.44702 20.733 8.84466 22.4534 9.63994C24.1901 10.4352 25.6832 11.5389 26.933 12.9509C28.1827 14.3467 28.8076 15.7993 28.8076 17.3087C28.8076 18.2988 28.1178 19.4673 26.7382 20.8144C25.3749 22.1453 23.7924 23.2896 21.9909 24.2471C20.1893 25.1885 18.6961 25.6592 17.5113 25.6592C17.203 25.6592 16.8459 25.3995 16.4401 24.8801C16.0506 24.3445 15.8558 23.8089 15.8558 23.2733C15.8558 22.7215 16.3265 20.7576 17.2679 17.3818C18.2092 14.0059 18.7205 11.7823 18.8016 10.7111C18.2823 10.5001 17.8684 10.2242 17.56 9.88339C17.2516 9.54256 17.0975 9.21796 17.0975 8.90958C17.0975 8.60121 17.2598 8.44702 17.5844 8.44702ZM26.5678 17.0409C26.5678 16.0346 25.9673 14.9472 24.7662 13.7786C23.5652 12.5938 22.1694 11.7418 20.5788 11.2224C20.66 11.5145 20.7006 11.8635 20.7006 12.2692C20.7006 12.6588 20.5545 13.3972 20.2623 14.4847C19.9864 15.5721 19.4752 17.3899 18.7286 19.938C18.4202 21.0092 18.1686 22.1859 17.9739 23.4681C19.0938 23.322 20.3435 22.8351 21.7231 22.0074C23.1189 21.1634 24.2712 20.2626 25.1801 19.305C26.1052 18.3475 26.5678 17.5927 26.5678 17.0409ZM41.9272 25.5131C41.7 25.5131 41.4322 25.3264 41.1238 24.9532C40.8317 24.5636 40.6856 24.166 40.6856 23.7602C40.6856 23.3382 41.2131 21.0822 42.268 16.9922C43.323 12.9022 43.8505 10.3378 43.8505 9.29911C43.8505 9.00696 43.883 8.80409 43.9479 8.69047C44.0128 8.57686 44.1589 8.52006 44.3861 8.52006C44.6295 8.52006 44.9136 8.77162 45.2382 9.27476C45.5628 9.7779 45.7251 10.3541 45.7251 11.0033C45.7251 11.6525 45.3031 13.5758 44.4591 16.7731C45.9361 14.7606 47.4942 12.9103 49.1334 11.2224C50.7727 9.51822 51.8114 8.66613 52.2496 8.66613C52.5742 8.66613 52.8745 8.77163 53.1504 8.98262C53.4426 9.19361 53.5886 9.4046 53.5886 9.6156C53.5886 9.81036 53.1991 10.2648 52.42 10.9789C51.6572 11.6768 50.6266 12.6588 49.3282 13.9247C48.0298 15.1907 46.918 16.4566 45.9929 17.7226C45.9929 18.388 46.1714 19.1103 46.5285 19.8893C47.0965 21.1877 48.2651 22.2671 50.0342 23.1273C50.797 23.5005 51.3894 23.817 51.8114 24.0767C52.2496 24.3364 52.4687 24.6042 52.4687 24.8801C52.4687 25.3021 52.1522 25.5131 51.5193 25.5131C50.8863 25.5131 50.2209 25.3833 49.523 25.1236C48.8251 24.8477 48.1272 24.4662 47.4293 23.9793C46.7314 23.4924 46.0903 22.8513 45.506 22.0561C44.9379 21.2445 44.5484 20.36 44.3374 19.4024C43.8343 20.2951 43.3636 21.4718 42.9254 22.9325C42.3898 24.6529 42.0652 25.5131 41.9516 25.5131H41.9272ZM60.9852 13.5595C61.7156 13.5595 62.3891 13.9328 63.0059 14.6794C63.6226 15.4098 63.931 16.0752 63.931 16.6757C63.931 17.26 63.7281 17.8605 63.3224 18.4773C63.5171 18.7207 63.6145 18.9317 63.6145 19.1103C63.6145 19.5647 63.509 20.3438 63.298 21.4474C63.1033 22.5511 62.9815 23.2733 62.9329 23.6142C62.9004 23.955 62.8679 24.2309 62.8355 24.4419C62.803 24.6367 62.7624 24.8314 62.7137 25.0262C62.6488 25.4319 62.5028 25.6348 62.2755 25.6348C61.9834 25.6348 61.7399 25.3833 61.5452 24.8801C61.3666 24.3607 61.2611 23.6953 61.2287 22.8838C59.7842 24.7178 58.4452 25.6348 57.2117 25.6348C56.4651 25.6348 55.7266 25.3183 54.9963 24.6854C54.2821 24.0361 53.9251 23.3707 53.9251 22.689C53.9251 21.7152 54.2821 20.5142 54.9963 19.0859C55.7104 17.6414 56.6355 16.3593 57.7716 15.2394C58.9078 14.1195 59.979 13.5595 60.9852 13.5595ZM62.1051 17.8443C62.1051 16.3349 61.8049 15.5802 61.2043 15.5802C60.5714 15.5802 59.8329 16.0346 58.9889 16.9435C58.1449 17.8362 57.4308 18.8506 56.8465 19.9867C56.2622 21.1228 55.9701 22.0236 55.9701 22.689C55.9701 22.9649 56.0837 23.1922 56.3109 23.3707C56.5381 23.533 56.8059 23.6142 57.1143 23.6142C57.8771 23.6142 58.7373 23.1029 59.6949 22.0804C60.6525 21.0417 61.3179 19.7838 61.6912 18.3069C61.7399 18.0634 61.8779 17.9174 62.1051 17.8687V17.8443ZM67.382 16.5297L67.3089 14.7038C67.3089 13.9409 67.4875 13.5595 67.8445 13.5595C68.1529 13.5595 68.445 13.7624 68.721 14.1682C69.0131 14.5577 69.1592 15.0284 69.1592 15.5802C69.1592 16.1158 69.1429 16.5216 69.1105 16.7975C70.5225 14.6551 71.8615 13.5839 73.1275 13.5839C73.9227 13.5839 74.3204 13.7786 74.3204 14.1682C74.3204 14.3629 74.2311 14.5415 74.0526 14.7038C73.874 14.8661 73.59 15.0527 73.2005 15.2637C72.3403 15.637 71.6099 16.2132 71.0094 16.9922C70.4251 17.7551 69.9463 18.6234 69.573 19.5972C69.1997 20.571 68.8995 21.3906 68.6723 22.0561C68.4613 22.7215 68.299 23.2409 68.1854 23.6142C68.0717 23.9875 67.9419 24.3526 67.7958 24.7097C67.5361 25.3589 67.2359 25.6835 66.8951 25.6835C66.6191 25.6835 66.3919 25.5293 66.2134 25.2209C66.0511 24.8963 65.9699 24.588 65.9699 24.2958C65.9699 23.9875 66.1079 23.3869 66.3838 22.4943C67.0492 20.4493 67.382 18.4611 67.382 16.5297ZM76.7075 23.2003C76.7075 23.5087 76.8861 23.6628 77.2431 23.6628C77.8599 23.6628 78.6065 23.4924 79.4829 23.1516C80.3756 22.7945 80.8706 22.616 80.968 22.616C81.2601 22.616 81.4062 22.7702 81.4062 23.0786C81.4062 23.5492 80.9193 24.0929 79.9455 24.7097C78.9879 25.3264 78.1115 25.6348 77.3162 25.6348C76.5371 25.6348 75.8879 25.4238 75.3686 25.0018C74.8492 24.5636 74.5895 24.1173 74.5895 23.6628C74.5895 23.2084 74.6869 22.6322 74.8816 21.9343C75.0764 21.2202 75.3523 20.287 75.7094 19.1346C76.0827 17.966 76.3748 17.0003 76.5858 16.2375C75.823 16.4161 75.3117 16.5053 75.0521 16.5053C74.7924 16.5053 74.5327 16.3755 74.273 16.1158C74.0296 15.8399 73.9078 15.5802 73.9078 15.3367C73.9078 14.9472 74.9628 14.5739 77.0727 14.2169C77.3649 12.8698 77.5109 11.6768 77.5109 10.6381C77.5109 10.1512 77.6732 9.90774 77.9978 9.90774C78.2738 9.90774 78.6146 10.0863 79.0204 10.4433C79.4261 10.7842 79.629 11.1737 79.629 11.6119C79.629 12.0501 79.491 12.8211 79.2151 13.9247C80.1402 13.8436 80.8787 13.803 81.4305 13.803C82.4044 13.803 82.8913 14.014 82.8913 14.436C82.8913 14.6794 82.6235 14.8823 82.0879 15.0446C81.5685 15.2069 80.4648 15.4585 78.7769 15.7993C78.4361 17.0815 78.006 18.5503 77.4866 20.2058C76.9672 21.8451 76.7075 22.8432 76.7075 23.2003ZM93.1094 17.6009C93.1094 18.4611 92.6388 19.1671 91.6974 19.7189C90.7723 20.2545 89.7173 20.5223 88.5325 20.5223C87.364 20.5223 86.3009 20.3925 85.3433 20.1328C85.1161 20.8469 85.0025 21.488 85.0025 22.0561C85.0025 22.6079 85.1729 23.038 85.5137 23.3464C85.8708 23.6547 86.4469 23.8089 87.2422 23.8089C88.0537 23.8089 88.8815 23.671 89.7255 23.3951C90.5857 23.1029 91.0563 22.9568 91.1375 22.9568C91.5595 22.9568 91.7705 23.1191 91.7705 23.4437C91.7705 23.882 91.2754 24.3607 90.2854 24.8801C89.2953 25.3833 88.3297 25.6348 87.3883 25.6348C86.1223 25.6348 85.0917 25.2615 84.2964 24.5149C83.5012 23.7521 83.1035 22.7945 83.1035 21.6422C83.1035 20.4898 83.4119 19.2888 84.0286 18.0391C84.6454 16.7731 85.4407 15.71 86.4145 14.8498C87.3883 13.9896 88.354 13.5595 89.3116 13.5595C90.2692 13.5595 91.1375 14.014 91.9165 14.9229C92.7118 15.8318 93.1094 16.7244 93.1094 17.6009ZM89.4333 15.4828C88.8328 15.4828 88.2079 15.7993 87.5587 16.4323C86.9095 17.049 86.3577 17.82 85.9032 18.7451C86.5524 18.8912 87.2909 18.9642 88.1187 18.9642C88.9464 18.9642 89.6686 18.8344 90.2854 18.5747C90.9021 18.2988 91.2105 17.9417 91.2105 17.5035C91.2105 17.0653 91.0076 16.6189 90.6019 16.1645C90.2124 15.71 89.8228 15.4828 89.4333 15.4828Z" fill="white"/>
<g clip-path="url(#clip0_224_106)">
<path d="M69.257 99.262C71.2395 95.6031 73.222 91.9442 75.2041 88.2874C75.5369 87.6706 75.5029 86.7454 75.3599 86.0831C75.2982 85.798 75.2196 85.5119 75.0922 85.2487C74.9577 84.9652 74.8135 84.8064 74.5206 84.7284C74.5226 84.7288 74.5247 84.7292 74.5267 84.7295C74.5247 84.7292 74.5206 84.7284 74.5185 84.728C74.5185 84.728 74.5144 84.7273 74.5123 84.7269C74.5061 84.7258 74.4999 84.7247 74.4937 84.7236C71.2569 83.8839 68.1194 82.6932 65.1453 81.1757C64.5871 80.8771 64.0289 80.5785 63.4707 80.2799C63.2239 80.1469 63.0309 80.3188 62.9093 80.5204C62.7199 80.8383 62.6671 81.3452 62.6649 81.7011C62.6636 82.1941 62.7047 82.7116 62.87 83.1798C62.9746 83.4748 63.1028 83.8647 63.3952 84.029C63.9333 84.3324 64.4781 84.6223 65.0289 84.9027C66.7871 85.8431 68.5433 86.783 70.3015 87.7234C70.2339 87.7555 70.1684 87.788 70.0987 87.8197C66.6219 89.3083 62.7434 89.795 58.9804 89.3792C57.8285 89.252 56.6862 89.0359 55.5618 88.7556C51.2882 87.6344 47.3296 85.5097 43.8534 82.8247C43.0354 82.1926 42.245 81.5255 41.4788 80.8311C39.5031 79.0021 37.7189 76.9736 36.1868 74.7649C35.9957 74.4881 35.807 74.2096 35.6232 73.9278C35.5347 73.7917 35.4483 73.656 35.3618 73.5203C35.3188 73.4514 35.2754 73.3846 35.2323 73.3157C35.2289 73.3109 35.2293 73.3088 35.2255 73.306C35.2238 73.3036 35.2221 73.3012 35.2188 73.2964C34.8658 72.7101 34.5251 72.1155 34.2055 71.5099C33.8924 70.916 33.5996 70.3153 33.3239 69.7028C33.1869 69.3978 33.0548 69.0895 32.9268 68.7818C32.9016 68.7204 32.8764 68.659 32.8512 68.5975C32.7885 68.4366 32.7275 68.278 32.6669 68.1174C32.4344 67.4896 32.2224 66.8549 32.0309 66.2133C31.9377 65.9015 31.8512 65.5887 31.7691 65.2746C31.7592 65.2348 31.7497 65.1931 31.7398 65.1533C31.6969 64.977 31.6564 64.799 31.616 64.6209C31.5345 64.2564 31.4619 63.8892 31.396 63.5211C31.3648 63.351 31.3377 63.1817 31.3089 63.01C31.2979 62.9406 31.287 62.8712 31.276 62.8017C31.1867 62.1132 31.1167 61.424 31.0754 60.7293C31.0656 60.5821 31.0604 60.4336 31.0527 60.2868C31.0504 60.2168 31.0497 60.1493 31.0474 60.0793C31.0402 59.7049 31.0415 59.3299 31.0491 58.956C31.0562 58.5969 31.0719 58.2371 31.0938 57.8785C31.0969 57.8137 31.1021 57.7493 31.1073 57.6849C31.1222 57.5189 31.1355 57.3506 31.1525 57.185C31.2261 56.4562 31.3289 55.7306 31.4611 55.0082C31.4897 54.8489 31.5222 54.6925 31.5529 54.5336C31.5732 54.4445 31.591 54.357 31.6113 54.268C31.6914 53.9177 31.7774 53.5706 31.8695 53.2246C32.0558 52.533 32.2702 51.8507 32.5112 51.1752C32.5745 51.0011 32.6382 50.825 32.7056 50.6516C32.7329 50.5827 32.7627 50.5122 32.7879 50.443C32.7989 50.4175 32.8078 50.3917 32.8184 50.3683C32.9545 50.0387 33.0989 49.7105 33.249 49.3855C33.856 48.074 34.577 46.8167 35.4085 45.632C35.6033 45.3551 35.8036 45.0834 36.0097 44.8148C36.0209 44.8 36.0342 44.7855 36.0457 44.7686C36.554 44.1244 36.5312 43.1253 36.3628 42.3551C36.2827 41.9824 36.1872 41.5183 35.9189 41.2318C35.7883 41.0924 35.5071 40.8542 35.3249 41.0849C33.571 43.3072 32.2279 45.7595 31.2622 48.4125C30.2762 51.1187 29.7567 53.97 29.5708 56.8392C29.2055 62.4713 30.3988 68.1857 32.855 73.28C35.0861 77.9079 38.3484 81.9942 42.2591 85.3455C46.5687 89.0385 51.7368 91.8594 57.357 92.9383C61.7819 93.7873 66.4571 93.3997 70.5741 91.6111C69.7823 93.0727 68.9909 94.5323 68.1991 95.994C68.0135 96.3379 67.9633 96.7947 67.9546 97.1747C67.9438 97.6492 67.9998 98.2031 68.1597 98.6535C68.254 98.9234 68.3931 99.3827 68.6849 99.5026C68.9331 99.6042 69.1188 99.4964 69.2463 99.2622L69.257 99.262ZM31.5428 54.6372C31.5369 54.6698 31.5329 54.6923 31.534 54.6862C31.5369 54.6698 31.5398 54.6535 31.5428 54.6372Z" fill="white"/>
</g>
<defs>
<clipPath id="clip0_224_106">
<rect width="51.7308" height="50.7903" fill="white" transform="translate(82.2979 49.4011) rotate(100.202)"/>
</clipPath>
</defs>
</svg>
