<svg width="170" height="61" viewBox="0 0 170 61" fill="none" xmlns="http://www.w3.org/2000/svg">
<path d="M15.17 9.6846C15.204 8.95463 15.3738 8.58965 15.6793 8.58965C16.0019 8.58965 16.3499 8.78488 16.7233 9.17532C17.0968 9.56577 17.2835 9.91377 17.2835 10.2193C17.2835 11.6114 17.0629 13.5891 16.6215 16.1524C16.1971 18.7158 15.6199 21.0924 14.8899 23.2823C14.177 25.4722 13.4979 26.5671 12.8528 26.5671C12.6322 26.5671 12.3775 26.4568 12.0889 26.2361C11.8173 26.0154 11.6051 25.7438 11.4523 25.4212C10.943 24.2329 9.44068 20.4643 6.94523 14.1153C6.43595 16.0845 5.86726 18.3168 5.23915 20.8123C4.62802 23.2908 4.2206 24.8695 4.01689 25.5486C3.81318 26.2276 3.63493 26.5671 3.48215 26.5671C3.26146 26.5671 2.98985 26.3804 2.66731 26.0069C2.36174 25.6165 2.20896 25.2175 2.20896 24.8101C2.20896 24.4027 2.76067 22.0176 3.86411 17.6548C4.96754 13.275 5.53623 10.5419 5.57018 9.45542C5.57018 8.9122 5.71448 8.64058 6.00307 8.64058C6.1898 8.64058 6.44444 8.80185 6.76698 9.12439C7.1065 9.42996 7.35265 9.76948 7.50543 10.1429C10.2386 17.2389 11.9701 21.5847 12.7001 23.1804C13.8035 20.2606 14.5419 16.772 14.9154 12.7148C15.0852 10.8474 15.17 9.83738 15.17 9.6846ZM25.655 13.988C26.4189 13.988 27.1234 14.3784 27.7685 15.1593C28.4136 15.9232 28.7361 16.6192 28.7361 17.2474C28.7361 17.8585 28.5239 18.4866 28.0995 19.1317C28.3032 19.3863 28.4051 19.607 28.4051 19.7937C28.4051 20.2691 28.2947 21.0839 28.074 22.2383C27.8703 23.3926 27.743 24.1481 27.6921 24.5045C27.6581 24.861 27.6242 25.1496 27.5902 25.3703C27.5563 25.574 27.5138 25.7777 27.4629 25.9814C27.395 26.4058 27.2422 26.618 27.0046 26.618C26.699 26.618 26.4444 26.3549 26.2406 25.8287C26.0539 25.2854 25.9436 24.5894 25.9096 23.7406C24.3988 25.6589 22.9982 26.618 21.7081 26.618C20.9272 26.618 20.1548 26.287 19.3909 25.625C18.6439 24.9459 18.2705 24.2499 18.2705 23.5369C18.2705 22.5184 18.6439 21.2622 19.3909 19.7683C20.1378 18.2574 21.1054 16.9163 22.2937 15.745C23.4821 14.5737 24.6025 13.988 25.655 13.988ZM26.8263 18.4696C26.8263 16.8909 26.5123 16.1015 25.8841 16.1015C25.2221 16.1015 24.4497 16.5768 23.5669 17.5275C22.6842 18.4611 21.9373 19.5221 21.3261 20.7104C20.715 21.8987 20.4094 22.8409 20.4094 23.5369C20.4094 23.8255 20.5283 24.0632 20.7659 24.2499C21.0036 24.4197 21.2837 24.5045 21.6062 24.5045C22.4041 24.5045 23.3038 23.9698 24.3054 22.9003C25.307 21.8139 26.003 20.4982 26.3934 18.9534C26.4444 18.6988 26.5886 18.546 26.8263 18.4951V18.4696ZM39.6028 13.988C39.8914 13.988 40.1715 14.0983 40.4431 14.319C40.7147 14.5227 40.8505 14.7519 40.8505 15.0065C40.8505 15.4649 40.2309 17.0521 38.9917 19.7683C37.7694 22.4844 36.8951 24.3178 36.3689 25.2685C35.8596 26.2021 35.4097 26.669 35.0193 26.669C34.7986 26.669 34.527 26.5077 34.2045 26.1852C33.8819 25.8626 33.6442 25.5146 33.4915 25.1411C33.0331 24.0717 32.5408 22.3486 32.0146 19.972C31.4883 17.5954 31.2252 15.8553 31.2252 14.7519C31.2252 14.2426 31.378 13.988 31.6835 13.988C32.057 13.988 32.439 14.1493 32.8294 14.4718C33.2199 14.7774 33.4915 15.1678 33.6442 15.6431C33.6952 15.9147 33.7631 16.5938 33.848 17.6802C34.0856 20.3624 34.493 22.425 35.0702 23.8679C35.5286 22.8833 36.1142 21.4913 36.8272 19.6919C37.5402 17.8755 38.1174 16.475 38.5588 15.4904C39.0171 14.4888 39.3651 13.988 39.6028 13.988ZM44.8197 10.3721C44.8197 10.0326 44.9555 9.71006 45.2271 9.4045C45.4987 9.09893 45.7703 8.94615 46.0419 8.94615C46.3305 8.94615 46.6701 9.29415 47.0605 9.99016C47.4509 10.6692 47.6462 11.2379 47.6462 11.6962C47.6462 11.866 47.5698 12.0188 47.417 12.1546C47.2642 12.2904 47.1029 12.3583 46.9332 12.3583C46.5258 12.3583 46.0674 12.1121 45.5581 11.6198C45.0658 11.1275 44.8197 10.7116 44.8197 10.3721ZM44.6924 13.988C45.0149 13.988 45.3205 14.1832 45.6091 14.5737C45.8977 14.9641 46.0419 15.3461 46.0419 15.7195C46.0419 16.093 45.7958 17.2134 45.3035 19.0807C44.8112 20.9311 44.1916 23.0107 43.4446 25.3194C43.156 26.1682 42.7911 26.5926 42.3497 26.5926C42.112 26.5926 41.9083 26.4992 41.7386 26.3125C41.5688 26.1088 41.4839 25.8881 41.4839 25.6504C41.4839 25.3958 41.5433 25.0053 41.6622 24.4791C41.798 23.9359 41.9847 23.2229 42.2224 22.3401C42.477 21.4404 42.6722 20.7104 42.808 20.1502C42.9608 19.59 43.1136 18.9619 43.2664 18.2659C43.4192 17.5529 43.538 16.9842 43.6229 16.5598C43.7247 16.1185 43.8351 15.6771 43.9539 15.2357C44.1916 14.4039 44.4377 13.988 44.6924 13.988ZM57.7115 19.7428C57.7115 20.4218 57.4145 21.1942 56.8203 22.06C56.362 23.0955 55.8697 24.5894 55.3434 26.5417C54.8172 28.4769 54.3758 29.8604 54.0193 30.6923C53.3063 32.4238 52.2114 33.2896 50.7345 33.2896C49.5292 33.2896 48.5106 32.9585 47.6788 32.2965C46.864 31.6514 46.4565 31.0063 46.4565 30.3612C46.4565 30.0896 46.5414 29.818 46.7112 29.5464C46.864 29.2748 47.0252 29.139 47.195 29.139C47.3817 29.139 47.5854 29.2663 47.8061 29.5209C48.0268 29.7756 48.2305 30.0472 48.4172 30.3358C48.621 30.6413 48.918 30.9214 49.3085 31.1761C49.7159 31.4307 50.1063 31.558 50.4798 31.558C50.8533 31.558 51.1334 31.4986 51.3201 31.3798C51.5069 31.2779 51.6851 31.0997 51.8549 30.845C52.0246 30.6074 52.1689 30.3612 52.2877 30.1066C52.4066 29.8689 52.5339 29.5209 52.6697 29.0626C52.8225 28.6212 52.9413 28.2392 53.0262 27.9167C53.1111 27.5942 53.2299 27.1443 53.3827 26.5671C53.5355 25.973 53.6628 25.4976 53.7647 25.1411C52.4405 26.1257 51.3626 26.618 50.5307 26.618C49.6989 26.618 48.9775 26.287 48.3663 25.625C47.7552 24.9459 47.4496 24.165 47.4496 23.2823C47.4496 22.3826 47.7807 21.1942 48.4427 19.7173C49.1217 18.2404 50.03 16.9163 51.1673 15.745C52.3047 14.5737 53.4166 13.988 54.5031 13.988C55.1991 13.988 55.7848 14.2511 56.2601 14.7774C57.041 15.6431 57.4314 16.8739 57.4314 18.4696C57.4314 18.6733 57.423 18.8176 57.406 18.9025C57.6097 19.1911 57.7115 19.4712 57.7115 19.7428ZM49.5122 23.5369C49.5122 23.8255 49.6056 24.0632 49.7923 24.2499C49.979 24.4197 50.2167 24.5045 50.5053 24.5045C51.3541 24.5045 52.3557 24.0038 53.51 23.0022C54.6644 21.9836 55.4792 20.8038 55.9545 19.4627C55.8866 19.242 55.8272 18.9025 55.7763 18.4442C55.7254 17.9858 55.6744 17.6208 55.6235 17.3492C55.5726 17.0776 55.4622 16.806 55.2925 16.5344C55.1227 16.2458 54.902 16.1015 54.6304 16.1015C53.9684 16.1015 53.2214 16.5768 52.3896 17.5275C51.5578 18.4781 50.8703 19.5391 50.327 20.7104C49.7838 21.8818 49.5122 22.8239 49.5122 23.5369ZM66.4866 13.988C67.2505 13.988 67.955 14.3784 68.6001 15.1593C69.2452 15.9232 69.5677 16.6192 69.5677 17.2474C69.5677 17.8585 69.3555 18.4866 68.9311 19.1317C69.1349 19.3863 69.2367 19.607 69.2367 19.7937C69.2367 20.2691 69.1264 21.0839 68.9057 22.2383C68.702 23.3926 68.5746 24.1481 68.5237 24.5045C68.4898 24.861 68.4558 25.1496 68.4219 25.3703C68.3879 25.574 68.3455 25.7777 68.2945 25.9814C68.2266 26.4058 68.0739 26.618 67.8362 26.618C67.5306 26.618 67.276 26.3549 67.0723 25.8287C66.8855 25.2854 66.7752 24.5894 66.7413 23.7406C65.2304 25.6589 63.8299 26.618 62.5397 26.618C61.7588 26.618 60.9864 26.287 60.2225 25.625C59.4756 24.9459 59.1021 24.2499 59.1021 23.5369C59.1021 22.5184 59.4756 21.2622 60.2225 19.7683C60.9695 18.2574 61.9371 16.9163 63.1254 15.745C64.3137 14.5737 65.4341 13.988 66.4866 13.988ZM67.658 18.4696C67.658 16.8909 67.3439 16.1015 66.7158 16.1015C66.0537 16.1015 65.2813 16.5768 64.3986 17.5275C63.5158 18.4611 62.7689 19.5221 62.1578 20.7104C61.5466 21.8987 61.2411 22.8409 61.2411 23.5369C61.2411 23.8255 61.3599 24.0632 61.5976 24.2499C61.8352 24.4197 62.1153 24.5045 62.4379 24.5045C63.2357 24.5045 64.1355 23.9698 65.137 22.9003C66.1386 21.8139 66.8346 20.4982 67.2251 18.9534C67.276 18.6988 67.4203 18.546 67.658 18.4951V18.4696ZM74.5014 24.0717C74.5014 24.3942 74.6881 24.5555 75.0616 24.5555C75.7066 24.5555 76.4875 24.3772 77.4042 24.0207C78.3379 23.6473 78.8557 23.4605 78.9575 23.4605C79.2631 23.4605 79.4159 23.6218 79.4159 23.9443C79.4159 24.4366 78.9066 25.0053 77.888 25.6504C76.8865 26.2955 75.9698 26.618 75.1379 26.618C74.3231 26.618 73.6441 26.3974 73.1008 25.956C72.5576 25.4976 72.286 25.0308 72.286 24.5555C72.286 24.0801 72.3879 23.4775 72.5916 22.7475C72.7953 22.0006 73.0839 21.0245 73.4573 19.8192C73.8478 18.5969 74.1533 17.5869 74.374 16.789C73.5762 16.9757 73.0414 17.0691 72.7698 17.0691C72.4982 17.0691 72.2266 16.9333 71.955 16.6617C71.7003 16.3731 71.573 16.1015 71.573 15.8468C71.573 15.4394 72.6764 15.049 74.8833 14.6755C75.1889 13.2665 75.3417 12.0188 75.3417 10.9323C75.3417 10.423 75.5114 10.1684 75.8509 10.1684C76.1395 10.1684 76.496 10.3551 76.9204 10.7286C77.3448 11.0851 77.557 11.4925 77.557 11.9509C77.557 12.4092 77.4127 13.2156 77.1241 14.3699C78.0917 14.2851 78.8642 14.2426 79.4413 14.2426C80.4599 14.2426 80.9692 14.4633 80.9692 14.9047C80.9692 15.1593 80.6891 15.3715 80.1289 15.5413C79.5856 15.711 78.4313 15.9742 76.6658 16.3307C76.3093 17.6718 75.8594 19.2081 75.3162 20.9396C74.773 22.6542 74.5014 23.6982 74.5014 24.0717ZM84.7561 10.3721C84.7561 10.0326 84.8919 9.71006 85.1635 9.4045C85.4352 9.09893 85.7068 8.94615 85.9784 8.94615C86.267 8.94615 86.6065 9.29415 86.9969 9.99016C87.3874 10.6692 87.5826 11.2379 87.5826 11.6962C87.5826 11.866 87.5062 12.0188 87.3534 12.1546C87.2006 12.2904 87.0394 12.3583 86.8696 12.3583C86.4622 12.3583 86.0038 12.1121 85.4946 11.6198C85.0023 11.1275 84.7561 10.7116 84.7561 10.3721ZM84.6288 13.988C84.9513 13.988 85.2569 14.1832 85.5455 14.5737C85.8341 14.9641 85.9784 15.3461 85.9784 15.7195C85.9784 16.093 85.7322 17.2134 85.2399 19.0807C84.7476 20.9311 84.128 23.0107 83.3811 25.3194C83.0925 26.1682 82.7275 26.5926 82.2861 26.5926C82.0485 26.5926 81.8448 26.4992 81.675 26.3125C81.5052 26.1088 81.4204 25.8881 81.4204 25.6504C81.4204 25.3958 81.4798 25.0053 81.5986 24.4791C81.7344 23.9359 81.9211 23.2229 82.1588 22.3401C82.4134 21.4404 82.6087 20.7104 82.7445 20.1502C82.8973 19.59 83.05 18.9619 83.2028 18.2659C83.3556 17.5529 83.4744 16.9842 83.5593 16.5598C83.6612 16.1185 83.7715 15.6771 83.8903 15.2357C84.128 14.4039 84.3742 13.988 84.6288 13.988ZM95.2544 18.3168C95.2544 17.7397 95.161 17.1964 94.9743 16.6871C94.7875 16.1609 94.5159 15.7789 94.1594 15.5413C92.9881 15.8638 91.978 16.772 91.1292 18.2659C90.2974 19.7428 89.8815 21.1348 89.8815 22.442C89.8815 23.7491 90.204 24.564 90.8491 24.8865C92.0714 24.6488 93.1069 23.817 93.9557 22.391C94.8215 20.9481 95.2544 19.59 95.2544 18.3168ZM88.5574 18.546C89.1515 17.2219 89.9239 16.1354 90.8746 15.2866C91.8422 14.4209 92.8268 13.988 93.8284 13.988C94.847 13.988 95.6957 14.4209 96.3748 15.2866C97.0538 16.1354 97.3933 17.1795 97.3933 18.4187C97.3933 19.641 97.0963 20.8972 96.5021 22.1873C95.9079 23.4605 95.0846 24.5215 94.0321 25.3703C92.9966 26.2021 91.8931 26.618 90.7218 26.618C89.856 26.618 89.1346 26.2191 88.5574 25.4212C87.9802 24.6234 87.6916 23.6133 87.6916 22.391C87.6916 21.1518 87.9802 19.8701 88.5574 18.546ZM101.598 22.1873C103.228 19.4203 104.552 17.3662 105.57 16.0251C106.606 14.667 107.446 13.988 108.091 13.988C108.753 13.988 109.373 14.336 109.95 15.032C110.544 15.728 110.841 16.4665 110.841 17.2474C110.841 18.4696 110.561 19.9635 110.001 21.729C108.983 24.9884 108.066 26.618 107.251 26.618C106.878 26.618 106.691 26.3634 106.691 25.8541C106.691 25.4976 106.869 24.7762 107.226 23.6897C107.599 22.5863 107.939 21.5083 108.244 20.4558C108.567 19.3863 108.728 18.5884 108.728 18.0622C108.728 17.519 108.643 17.12 108.473 16.8654C108.321 16.6108 108.159 16.4834 107.989 16.4834C107.837 16.4834 107.675 16.5344 107.506 16.6362C107.336 16.7381 107.141 16.9078 106.92 17.1455C106.716 17.3832 106.521 17.6208 106.334 17.8585C106.148 18.0792 105.91 18.4017 105.621 18.8261C105.35 19.2505 105.121 19.6155 104.934 19.9211C104.747 20.2096 104.475 20.634 104.119 21.1942C103.762 21.7545 103.491 22.1788 103.304 22.4674C103.117 22.756 102.871 23.1465 102.566 23.6388C102.26 24.1311 102.014 24.513 101.827 24.7846C101.657 25.0563 101.462 25.3533 101.242 25.6759C100.817 26.304 100.478 26.618 100.223 26.618C99.9853 26.618 99.7052 26.4313 99.3827 26.0578C99.0602 25.6674 98.8989 25.3279 98.8989 25.0393C98.8989 24.9544 98.9583 24.7252 99.0771 24.3518C99.3997 23.3672 99.7562 22.1534 100.147 20.7104C100.537 19.2505 100.749 17.5954 100.783 15.745C100.834 14.5057 101.012 13.8861 101.318 13.8861C101.691 13.8861 102.065 14.0814 102.438 14.4718C102.812 14.8622 102.999 15.2951 102.999 15.7705C102.999 16.2288 102.854 17.1285 102.566 18.4696C102.294 19.7937 101.972 21.033 101.598 22.1873Z" fill="white"/>
<g clip-path="url(#clip0_224_105)">
<path d="M167.434 56.7892C163.817 57.8315 160.2 58.8738 156.584 59.9161C155.975 60.0905 155.164 59.8812 154.607 59.6264C154.367 59.5166 154.129 59.3917 153.921 59.2281C153.697 59.0543 153.585 58.8962 153.572 58.6222C153.572 58.6241 153.572 58.626 153.572 58.6279C153.572 58.626 153.572 58.6222 153.573 58.6203C153.573 58.6203 153.573 58.6165 153.573 58.6146C153.573 58.6089 153.573 58.6032 153.573 58.5975C153.459 55.5749 153.015 52.572 152.251 49.65C152.095 49.0989 151.94 48.5478 151.784 47.9968C151.715 47.7529 151.904 47.6157 152.105 47.5474C152.423 47.4417 152.881 47.4933 153.196 47.5603C153.632 47.6547 154.081 47.7914 154.463 48.0282C154.703 48.1779 155.023 48.3666 155.111 48.6568C155.275 49.1911 155.426 49.7287 155.567 50.2697C156.057 52.0055 156.547 53.7394 157.037 55.4751C157.078 55.4216 157.119 55.37 157.161 55.3146C159.15 52.5313 160.332 49.1988 160.694 45.7934C160.805 44.751 160.836 43.6998 160.806 42.6521C160.644 38.6588 159.534 34.7493 157.836 31.1574C157.436 30.3121 157 29.4845 156.535 28.6728C155.302 26.5726 153.855 24.603 152.201 22.8211C151.993 22.5986 151.784 22.3779 151.57 22.1609C151.467 22.0563 151.364 21.9536 151.261 21.8509C151.209 21.7995 151.158 21.7482 151.105 21.6968C151.102 21.6929 151.1 21.6928 151.098 21.6889C151.096 21.687 151.095 21.685 151.091 21.6811C150.641 21.2556 150.182 20.8393 149.709 20.4395C149.245 20.0477 148.771 19.6726 148.283 19.3103C148.04 19.1301 147.794 18.9536 147.547 18.7808C147.497 18.7467 147.448 18.7125 147.398 18.6783C147.268 18.5917 147.14 18.5071 147.01 18.4223C146.5 18.0953 145.981 17.7849 145.451 17.4913C145.193 17.3485 144.934 17.2114 144.672 17.078C144.639 17.0616 144.604 17.045 144.571 17.0286C144.423 16.9565 144.274 16.8862 144.124 16.816C143.818 16.6733 143.508 16.538 143.195 16.4084C143.051 16.3478 142.907 16.2911 142.761 16.2324C142.701 16.2092 142.642 16.1861 142.583 16.1629C141.992 15.9505 141.396 15.7551 140.791 15.5839C140.663 15.5468 140.532 15.5133 140.404 15.4781C140.343 15.4624 140.283 15.4488 140.222 15.4332C139.892 15.3542 139.561 15.2827 139.229 15.2169C138.91 15.1535 138.589 15.0977 138.268 15.0475C138.21 15.0377 138.153 15.0298 138.095 15.0219C137.945 15.0029 137.794 14.982 137.644 14.9649C136.986 14.8886 136.325 14.8389 135.661 14.8156C135.515 14.81 135.37 14.8083 135.224 14.8047C135.141 14.8053 135.061 14.8042 134.978 14.8048C134.653 14.8077 134.33 14.8163 134.006 14.8306C133.359 14.8611 132.714 14.9183 132.071 15.0003C131.905 15.0225 131.737 15.0446 131.571 15.0706C131.504 15.0814 131.436 15.094 131.37 15.1029C131.346 15.1076 131.321 15.1105 131.298 15.1153C130.981 15.1717 130.663 15.2356 130.347 15.3052C129.07 15.5873 127.82 15.9805 126.612 16.4855C126.329 16.604 126.05 16.7283 125.773 16.8583C125.758 16.8653 125.742 16.8742 125.725 16.8812C125.057 17.2053 124.179 16.9916 123.531 16.6934C123.217 16.5504 122.826 16.376 122.625 16.0835C122.527 15.9411 122.371 15.6464 122.61 15.5302C124.914 14.4114 127.341 13.7 129.872 13.3611C132.454 13.0147 135.074 13.1084 137.645 13.5004C142.692 14.2695 147.51 16.4316 151.535 19.5895C155.191 22.4579 158.169 26.1325 160.372 30.2374C162.8 34.7611 164.29 39.8742 164.154 45.0491C164.046 49.1233 162.797 53.1788 160.419 56.4697C161.864 56.0534 163.307 55.6371 164.752 55.2209C165.091 55.1236 165.505 55.1678 165.842 55.2338C166.263 55.3163 166.742 55.4731 167.109 55.7017C167.329 55.8373 167.708 56.0493 167.757 56.3304C167.799 56.5694 167.668 56.7126 167.436 56.7797L167.434 56.7892ZM135.317 14.8158C135.347 14.8169 135.368 14.8177 135.362 14.8175C135.347 14.8169 135.332 14.8164 135.317 14.8158Z" fill="white"/>
</g>
<defs>
<clipPath id="clip0_224_105">
<rect width="46.7937" height="45.9429" fill="white" transform="matrix(0.99928 0.0379317 0.0379317 -0.99928 120.853 58.645)"/>
</clipPath>
</defs>
</svg>
